<?xml version="1.0" encoding="UTF-8" standalone="no"?>
<!DOCTYPE svg PUBLIC "-//W3C//DTD SVG 1.1//EN"
 "http://www.w3.org/Graphics/SVG/1.1/DTD/svg11.dtd">
<!-- Generated by graphviz version 2.40.1 (0)
 -->
<!-- Title: G Pages: 1 -->
<svg width="2029pt" height="284pt"
 viewBox="0.00 0.00 2029.00 283.63" xmlns="http://www.w3.org/2000/svg" xmlns:xlink="http://www.w3.org/1999/xlink">
<g id="graph0" class="graph" transform="scale(1 1) rotate(0) translate(4 279.6294)">
<title>G</title>
<polygon fill="#ffffff" stroke="transparent" points="-4,4 -4,-279.6294 2025,-279.6294 2025,4 -4,4"/>
<text text-anchor="middle" x="1010.5" y="-6.6" font-family="Times,serif" font-size="8.00" fill="#000000">PhpDependencyAnalysis by Marco Muths v2.0.2</text>
<!-- App\\Geometry\\Area -->
<g id="node1" class="node">
<title>App\\Geometry\\Area</title>
<path fill="#9999cc" stroke="#000000" d="M1373.5,-204.6294C1373.5,-204.6294 1253.5,-204.6294 1253.5,-204.6294 1247.5,-204.6294 1241.5,-198.6294 1241.5,-192.6294 1241.5,-192.6294 1241.5,-180.6294 1241.5,-180.6294 1241.5,-174.6294 1247.5,-168.6294 1253.5,-168.6294 1253.5,-168.6294 1373.5,-168.6294 1373.5,-168.6294 1379.5,-168.6294 1385.5,-174.6294 1385.5,-180.6294 1385.5,-180.6294 1385.5,-192.6294 1385.5,-192.6294 1385.5,-198.6294 1379.5,-204.6294 1373.5,-204.6294"/>
<text text-anchor="middle" x="1313.5" y="-184.1294" font-family="Times,serif" font-size="10.00" fill="#000033">App\Geometry\Area</text>
</g>
<!-- App\\Geometry\\SquareMillimeter -->
<g id="node2" class="node">
<title>App\\Geometry\\SquareMillimeter</title>
<path fill="#9999cc" stroke="#000000" d="M1773.5,-204.6294C1773.5,-204.6294 1563.5,-204.6294 1563.5,-204.6294 1557.5,-204.6294 1551.5,-198.6294 1551.5,-192.6294 1551.5,-192.6294 1551.5,-180.6294 1551.5,-180.6294 1551.5,-174.6294 1557.5,-168.6294 1563.5,-168.6294 1563.5,-168.6294 1773.5,-168.6294 1773.5,-168.6294 1779.5,-168.6294 1785.5,-174.6294 1785.5,-180.6294 1785.5,-180.6294 1785.5,-192.6294 1785.5,-192.6294 1785.5,-198.6294 1779.5,-204.6294 1773.5,-204.6294"/>
<text text-anchor="middle" x="1668.5" y="-184.1294" font-family="Times,serif" font-size="10.00" fill="#000033">App\Geometry\SquareMillimeter</text>
</g>
<!-- App\\Geometry\\Area&#45;&gt;App\\Geometry\\SquareMillimeter -->
<g id="edge1" class="edge">
<title>App\\Geometry\\Area&#45;&gt;App\\Geometry\\SquareMillimeter</title>
<path fill="none" stroke="#999999" d="M1385.7674,-186.6294C1431.543,-186.6294 1491.9324,-186.6294 1545.143,-186.6294"/>
<polygon fill="#999999" stroke="#999999" points="1545.262,-188.7295 1551.2619,-186.6294 1545.2619,-184.5295 1545.262,-188.7295"/>
</g>
<!-- App\\Millimeter -->
<g id="node3" class="node">
<title>App\\Millimeter</title>
<path fill="#9999cc" stroke="#000000" d="M2009,-167.6294C2009,-167.6294 1911,-167.6294 1911,-167.6294 1905,-167.6294 1899,-161.6294 1899,-155.6294 1899,-155.6294 1899,-143.6294 1899,-143.6294 1899,-137.6294 1905,-131.6294 1911,-131.6294 1911,-131.6294 2009,-131.6294 2009,-131.6294 2015,-131.6294 2021,-137.6294 2021,-143.6294 2021,-143.6294 2021,-155.6294 2021,-155.6294 2021,-161.6294 2015,-167.6294 2009,-167.6294"/>
<text text-anchor="middle" x="1960" y="-147.1294" font-family="Times,serif" font-size="10.00" fill="#000033">App\Millimeter</text>
</g>
<!-- App\\Geometry\\Area&#45;&gt;App\\Millimeter -->
<g id="edge2" class="edge">
<title>App\\Geometry\\Area&#45;&gt;App\\Millimeter</title>
<path fill="none" stroke="#999999" d="M1385.7163,-177.6726C1422.8089,-173.387 1468.762,-168.5623 1510,-165.6294 1645.5466,-155.9889 1804.4949,-152.0635 1892.5691,-150.5368"/>
<polygon fill="#999999" stroke="#999999" points="1892.8233,-152.6328 1898.7866,-150.4309 1892.7517,-148.4335 1892.8233,-152.6328"/>
</g>
<!-- App\\Geometry\\SquareMillimeter&#45;&gt;App\\Millimeter -->
<g id="edge28" class="edge">
<title>App\\Geometry\\SquareMillimeter&#45;&gt;App\\Millimeter</title>
<path fill="none" stroke="#999999" d="M1785.8042,-171.74C1822.1415,-167.1277 1860.9332,-162.2039 1892.6643,-158.1763"/>
<polygon fill="#999999" stroke="#999999" points="1893.2258,-160.2219 1898.9136,-157.3831 1892.6968,-156.0554 1893.2258,-160.2219"/>
</g>
<!-- App\\Geometry\\Shape\\Circle -->
<g id="node4" class="node">
<title>App\\Geometry\\Shape\\Circle</title>
<path fill="#9999cc" stroke="#000000" d="M630,-175.6294C630,-175.6294 450,-175.6294 450,-175.6294 444,-175.6294 438,-169.6294 438,-163.6294 438,-163.6294 438,-151.6294 438,-151.6294 438,-145.6294 444,-139.6294 450,-139.6294 450,-139.6294 630,-139.6294 630,-139.6294 636,-139.6294 642,-145.6294 642,-151.6294 642,-151.6294 642,-163.6294 642,-163.6294 642,-169.6294 636,-175.6294 630,-175.6294"/>
<text text-anchor="middle" x="540" y="-155.1294" font-family="Times,serif" font-size="10.00" fill="#000033">App\Geometry\Shape\Circle</text>
</g>
<!-- App\\Geometry\\Shape\\Circle&#45;&gt;App\\Geometry\\Area -->
<g id="edge5" class="edge">
<title>App\\Geometry\\Shape\\Circle&#45;&gt;App\\Geometry\\Area</title>
<path fill="none" stroke="#999999" d="M642.3156,-161.4654C798.8873,-167.3356 1094.5452,-178.4203 1235.2584,-183.6959"/>
<polygon fill="#999999" stroke="#999999" points="1235.3558,-185.801 1241.4303,-183.9273 1235.5133,-181.6039 1235.3558,-185.801"/>
</g>
<!-- App\\Geometry\\Shape\\Circle&#45;&gt;App\\Geometry\\SquareMillimeter -->
<g id="edge6" class="edge">
<title>App\\Geometry\\Shape\\Circle&#45;&gt;App\\Geometry\\SquareMillimeter</title>
<path fill="none" stroke="#999999" d="M642.0937,-155.8202C808.7848,-153.4773 1149.7325,-151.2381 1438,-165.6294 1472.9033,-167.3719 1510.6939,-170.3541 1545.382,-173.5325"/>
<polygon fill="#999999" stroke="#999999" points="1545.2021,-175.6248 1551.3699,-174.0859 1545.5886,-171.4426 1545.2021,-175.6248"/>
</g>
<!-- App\\Geometry\\Shape\\Circle&#45;&gt;App\\Millimeter -->
<g id="edge4" class="edge">
<title>App\\Geometry\\Shape\\Circle&#45;&gt;App\\Millimeter</title>
<path fill="none" stroke="#999999" d="M642.1269,-154.9162C680.0791,-154.0194 723.5036,-153.125 763,-152.6294 1193.4453,-147.228 1711.0255,-148.6036 1892.8911,-149.3253"/>
<polygon fill="#999999" stroke="#999999" points="1892.949,-151.4255 1898.9574,-149.3497 1892.9659,-147.2255 1892.949,-151.4255"/>
</g>
<!-- App\\Geometry\\ShapeInterface -->
<g id="node5" class="node">
<title>App\\Geometry\\ShapeInterface</title>
<path fill="#9999cc" stroke="#000000" d="M1037.5,-219.6294C1037.5,-219.6294 842.5,-219.6294 842.5,-219.6294 836.5,-219.6294 830.5,-213.6294 830.5,-207.6294 830.5,-207.6294 830.5,-195.6294 830.5,-195.6294 830.5,-189.6294 836.5,-183.6294 842.5,-183.6294 842.5,-183.6294 1037.5,-183.6294 1037.5,-183.6294 1043.5,-183.6294 1049.5,-189.6294 1049.5,-195.6294 1049.5,-195.6294 1049.5,-207.6294 1049.5,-207.6294 1049.5,-213.6294 1043.5,-219.6294 1037.5,-219.6294"/>
<text text-anchor="middle" x="940" y="-199.1294" font-family="Times,serif" font-size="10.00" fill="#000033">App\Geometry\ShapeInterface</text>
</g>
<!-- App\\Geometry\\Shape\\Circle&#45;&gt;App\\Geometry\\ShapeInterface -->
<g id="edge3" class="edge">
<title>App\\Geometry\\Shape\\Circle&#45;&gt;App\\Geometry\\ShapeInterface</title>
<path fill="none" stroke="#999999" d="M642.2311,-168.8748C697.7291,-174.9796 766.5479,-182.5496 824.0411,-188.8739"/>
<polygon fill="#999999" stroke="#999999" points="824.0859,-190.9914 830.2795,-189.5601 824.5452,-186.8166 824.0859,-190.9914"/>
</g>
<!-- App\\Geometry\\ShapeInterface&#45;&gt;App\\Geometry\\Area -->
<g id="edge27" class="edge">
<title>App\\Geometry\\ShapeInterface&#45;&gt;App\\Geometry\\Area</title>
<path fill="none" stroke="#999999" d="M1049.5386,-197.2302C1109.1271,-194.8371 1181.4451,-191.9328 1235.307,-189.7696"/>
<polygon fill="#999999" stroke="#999999" points="1235.5396,-191.8621 1241.4504,-189.5229 1235.371,-187.6655 1235.5396,-191.8621"/>
</g>
<!-- App\\Geometry\\Shape\\Rectangle -->
<g id="node6" class="node">
<title>App\\Geometry\\Shape\\Rectangle</title>
<path fill="#9999cc" stroke="#000000" d="M641.5,-255.6294C641.5,-255.6294 438.5,-255.6294 438.5,-255.6294 432.5,-255.6294 426.5,-249.6294 426.5,-243.6294 426.5,-243.6294 426.5,-231.6294 426.5,-231.6294 426.5,-225.6294 432.5,-219.6294 438.5,-219.6294 438.5,-219.6294 641.5,-219.6294 641.5,-219.6294 647.5,-219.6294 653.5,-225.6294 653.5,-231.6294 653.5,-231.6294 653.5,-243.6294 653.5,-243.6294 653.5,-249.6294 647.5,-255.6294 641.5,-255.6294"/>
<text text-anchor="middle" x="540" y="-235.1294" font-family="Times,serif" font-size="10.00" fill="#000033">App\Geometry\Shape\Rectangle</text>
</g>
<!-- App\\Geometry\\Shape\\Rectangle&#45;&gt;App\\Geometry\\Area -->
<g id="edge9" class="edge">
<title>App\\Geometry\\Shape\\Rectangle&#45;&gt;App\\Geometry\\Area</title>
<path fill="none" stroke="#999999" d="M653.6522,-239.8629C770.2652,-240.9393 956.7801,-239.2868 1117,-222.6294 1156.1319,-218.561 1199.1669,-211.0295 1234.9624,-203.9028"/>
<polygon fill="#999999" stroke="#999999" points="1235.6307,-205.9107 1241.1,-202.6708 1234.804,-201.7928 1235.6307,-205.9107"/>
</g>
<!-- App\\Geometry\\Shape\\Rectangle&#45;&gt;App\\Geometry\\SquareMillimeter -->
<g id="edge10" class="edge">
<title>App\\Geometry\\Shape\\Rectangle&#45;&gt;App\\Geometry\\SquareMillimeter</title>
<path fill="none" stroke="#999999" d="M653.6512,-239.9298C770.0665,-241.6532 956.2487,-242.6571 1117,-235.6294 1260.0338,-229.3762 1295.403,-221.4311 1438,-208.6294 1472.8207,-205.5033 1510.5849,-201.9622 1545.274,-198.6488"/>
<polygon fill="#999999" stroke="#999999" points="1545.4896,-200.7379 1551.2624,-198.0762 1545.0897,-196.557 1545.4896,-200.7379"/>
</g>
<!-- App\\Geometry\\Shape\\Rectangle&#45;&gt;App\\Millimeter -->
<g id="edge8" class="edge">
<title>App\\Geometry\\Shape\\Rectangle&#45;&gt;App\\Millimeter</title>
<path fill="none" stroke="#999999" d="M653.7239,-240.6712C688.7662,-241.4761 727.472,-242.2311 763,-242.6294 1236.1005,-247.9325 1366.6206,-317.7306 1827,-208.6294 1860.962,-200.581 1897.0077,-184.0332 1922.9942,-170.5053"/>
<polygon fill="#999999" stroke="#999999" points="1924.0515,-172.322 1928.3824,-167.6686 1922.0949,-168.6056 1924.0515,-172.322"/>
</g>
<!-- App\\Geometry\\Shape\\Rectangle&#45;&gt;App\\Geometry\\ShapeInterface -->
<g id="edge7" class="edge">
<title>App\\Geometry\\Shape\\Rectangle&#45;&gt;App\\Geometry\\ShapeInterface</title>
<path fill="none" stroke="#999999" d="M653.554,-227.4095C706.9301,-222.6057 770.4782,-216.8863 824.1421,-212.0566"/>
<polygon fill="#999999" stroke="#999999" points="824.5139,-214.1317 830.3015,-211.5022 824.1374,-209.9486 824.5139,-214.1317"/>
</g>
<!-- App\\Geometry\\Shape\\Solid\\ComplexFigure -->
<g id="node7" class="node">
<title>App\\Geometry\\Shape\\Solid\\ComplexFigure</title>
<path fill="#9999cc" stroke="#000000" d="M679,-79.6294C679,-79.6294 401,-79.6294 401,-79.6294 395,-79.6294 389,-73.6294 389,-67.6294 389,-67.6294 389,-55.6294 389,-55.6294 389,-49.6294 395,-43.6294 401,-43.6294 401,-43.6294 679,-43.6294 679,-43.6294 685,-43.6294 691,-49.6294 691,-55.6294 691,-55.6294 691,-67.6294 691,-67.6294 691,-73.6294 685,-79.6294 679,-79.6294"/>
<text text-anchor="middle" x="540" y="-59.1294" font-family="Times,serif" font-size="10.00" fill="#000033">App\Geometry\Shape\Solid\ComplexFigure</text>
</g>
<!-- App\\Geometry\\Shape\\Solid\\SolidFigureInterface -->
<g id="node8" class="node">
<title>App\\Geometry\\Shape\\Solid\\SolidFigureInterface</title>
<path fill="#9999cc" stroke="#000000" d="M1105,-86.6294C1105,-86.6294 775,-86.6294 775,-86.6294 769,-86.6294 763,-80.6294 763,-74.6294 763,-74.6294 763,-62.6294 763,-62.6294 763,-56.6294 769,-50.6294 775,-50.6294 775,-50.6294 1105,-50.6294 1105,-50.6294 1111,-50.6294 1117,-56.6294 1117,-62.6294 1117,-62.6294 1117,-74.6294 1117,-74.6294 1117,-80.6294 1111,-86.6294 1105,-86.6294"/>
<text text-anchor="middle" x="940" y="-66.1294" font-family="Times,serif" font-size="10.00" fill="#000033">App\Geometry\Shape\Solid\SolidFigureInterface</text>
</g>
<!-- App\\Geometry\\Shape\\Solid\\ComplexFigure&#45;&gt;App\\Geometry\\Shape\\Solid\\SolidFigureInterface -->
<g id="edge11" class="edge">
<title>App\\Geometry\\Shape\\Solid\\ComplexFigure&#45;&gt;App\\Geometry\\Shape\\Solid\\SolidFigureInterface</title>
<path fill="none" stroke="#999999" d="M691.2228,-64.2758C712.5575,-64.6491 734.6807,-65.0363 756.5387,-65.4188"/>
<polygon fill="#999999" stroke="#999999" points="756.66,-67.5211 762.6959,-65.5265 756.7336,-63.3218 756.66,-67.5211"/>
</g>
<!-- App\\Geometry\\Shape\\Solid\\Volume -->
<g id="node9" class="node">
<title>App\\Geometry\\Shape\\Solid\\Volume</title>
<path fill="#9999cc" stroke="#000000" d="M1426,-94.6294C1426,-94.6294 1201,-94.6294 1201,-94.6294 1195,-94.6294 1189,-88.6294 1189,-82.6294 1189,-82.6294 1189,-70.6294 1189,-70.6294 1189,-64.6294 1195,-58.6294 1201,-58.6294 1201,-58.6294 1426,-58.6294 1426,-58.6294 1432,-58.6294 1438,-64.6294 1438,-70.6294 1438,-70.6294 1438,-82.6294 1438,-82.6294 1438,-88.6294 1432,-94.6294 1426,-94.6294"/>
<text text-anchor="middle" x="1313.5" y="-74.1294" font-family="Times,serif" font-size="10.00" fill="#000033">App\Geometry\Shape\Solid\Volume</text>
</g>
<!-- App\\Geometry\\Shape\\Solid\\ComplexFigure&#45;&gt;App\\Geometry\\Shape\\Solid\\Volume -->
<g id="edge12" class="edge">
<title>App\\Geometry\\Shape\\Solid\\ComplexFigure&#45;&gt;App\\Geometry\\Shape\\Solid\\Volume</title>
<path fill="none" stroke="#999999" d="M691.1459,-49.9254C807.6591,-42.8476 972.7199,-37.0401 1117,-47.6294 1145.6562,-49.7326 1176.4751,-53.5389 1205.0131,-57.7168"/>
<polygon fill="#999999" stroke="#999999" points="1204.8236,-59.8116 1211.0666,-58.6135 1205.4391,-55.6569 1204.8236,-59.8116"/>
</g>
<!-- App\\Geometry\\Shape\\Solid\\SolidFigureInterface&#45;&gt;App\\Geometry\\Shape\\Solid\\Volume -->
<g id="edge25" class="edge">
<title>App\\Geometry\\Shape\\Solid\\SolidFigureInterface&#45;&gt;App\\Geometry\\Shape\\Solid\\Volume</title>
<path fill="none" stroke="#999999" d="M1117.1791,-72.4244C1139.2119,-72.8963 1161.4227,-73.372 1182.5806,-73.8252"/>
<polygon fill="#999999" stroke="#999999" points="1182.7707,-75.9297 1188.8143,-73.9587 1182.8607,-71.7306 1182.7707,-75.9297"/>
</g>
<!-- App\\Geometry\\Shape\\Solid\\CubicMillimeter -->
<g id="node10" class="node">
<title>App\\Geometry\\Shape\\Solid\\CubicMillimeter</title>
<path fill="#9999cc" stroke="#000000" d="M1815,-116.6294C1815,-116.6294 1522,-116.6294 1522,-116.6294 1516,-116.6294 1510,-110.6294 1510,-104.6294 1510,-104.6294 1510,-92.6294 1510,-92.6294 1510,-86.6294 1516,-80.6294 1522,-80.6294 1522,-80.6294 1815,-80.6294 1815,-80.6294 1821,-80.6294 1827,-86.6294 1827,-92.6294 1827,-92.6294 1827,-104.6294 1827,-104.6294 1827,-110.6294 1821,-116.6294 1815,-116.6294"/>
<text text-anchor="middle" x="1668.5" y="-96.1294" font-family="Times,serif" font-size="10.00" fill="#000033">App\Geometry\Shape\Solid\CubicMillimeter</text>
</g>
<!-- App\\Geometry\\Shape\\Solid\\Volume&#45;&gt;App\\Geometry\\Shape\\Solid\\CubicMillimeter -->
<g id="edge26" class="edge">
<title>App\\Geometry\\Shape\\Solid\\Volume&#45;&gt;App\\Geometry\\Shape\\Solid\\CubicMillimeter</title>
<path fill="none" stroke="#999999" d="M1438.1605,-84.3548C1459.344,-85.6676 1481.6321,-87.0488 1503.659,-88.4139"/>
<polygon fill="#999999" stroke="#999999" points="1503.7452,-90.5232 1509.8637,-88.7984 1504.0051,-86.3312 1503.7452,-90.5232"/>
</g>
<!-- App\\Geometry\\Shape\\Solid\\CubicMillimeter&#45;&gt;App\\Millimeter -->
<g id="edge13" class="edge">
<title>App\\Geometry\\Shape\\Solid\\CubicMillimeter&#45;&gt;App\\Millimeter</title>
<path fill="none" stroke="#999999" d="M1791.472,-116.6301C1803.4906,-118.5754 1815.4901,-120.591 1827,-122.6294 1848.5246,-126.4414 1871.9161,-131.0366 1892.9944,-135.3466"/>
<polygon fill="#999999" stroke="#999999" points="1892.5749,-137.4042 1898.8747,-136.5538 1893.4196,-133.29 1892.5749,-137.4042"/>
</g>
<!-- App\\Geometry\\Shape\\Solid\\Figure\\Cuboid -->
<g id="node11" class="node">
<title>App\\Geometry\\Shape\\Solid\\Figure\\Cuboid</title>
<path fill="#9999cc" stroke="#000000" d="M297.5,-255.6294C297.5,-255.6294 19.5,-255.6294 19.5,-255.6294 13.5,-255.6294 7.5,-249.6294 7.5,-243.6294 7.5,-243.6294 7.5,-231.6294 7.5,-231.6294 7.5,-225.6294 13.5,-219.6294 19.5,-219.6294 19.5,-219.6294 297.5,-219.6294 297.5,-219.6294 303.5,-219.6294 309.5,-225.6294 309.5,-231.6294 309.5,-231.6294 309.5,-243.6294 309.5,-243.6294 309.5,-249.6294 303.5,-255.6294 297.5,-255.6294"/>
<text text-anchor="middle" x="158.5" y="-235.1294" font-family="Times,serif" font-size="10.00" fill="#000033">App\Geometry\Shape\Solid\Figure\Cuboid</text>
</g>
<!-- App\\Geometry\\Shape\\Solid\\Figure\\Cuboid&#45;&gt;App\\Millimeter -->
<g id="edge15" class="edge">
<title>App\\Geometry\\Shape\\Solid\\Figure\\Cuboid&#45;&gt;App\\Millimeter</title>
<path fill="none" stroke="#999999" d="M309.6529,-253.4978C336.0769,-255.8597 363.3221,-258.0329 389,-259.6294 633.52,-274.8319 695.0079,-275.6294 940,-275.6294 940,-275.6294 940,-275.6294 1313.5,-275.6294 1444.14,-275.6294 1749.6739,-266.4081 1827,-239.6294 1869.2344,-225.0032 1910.729,-193.4017 1935.848,-171.8212"/>
<polygon fill="#999999" stroke="#999999" points="1937.499,-173.1685 1940.6488,-167.6467 1934.7431,-169.9991 1937.499,-173.1685"/>
</g>
<!-- App\\Geometry\\Shape\\Solid\\Figure\\Cuboid&#45;&gt;App\\Geometry\\Shape\\Rectangle -->
<g id="edge16" class="edge">
<title>App\\Geometry\\Shape\\Solid\\Figure\\Cuboid&#45;&gt;App\\Geometry\\Shape\\Rectangle</title>
<path fill="none" stroke="#999999" d="M309.5528,-237.6294C346.3487,-237.6294 385.2067,-237.6294 420.3166,-237.6294"/>
<polygon fill="#999999" stroke="#999999" points="420.3713,-239.7295 426.3713,-237.6294 420.3713,-235.5295 420.3713,-239.7295"/>
</g>
<!-- App\\Geometry\\Shape\\Solid\\Polyhedron -->
<g id="node12" class="node">
<title>App\\Geometry\\Shape\\Solid\\Polyhedron</title>
<path fill="#9999cc" stroke="#000000" d="M667.5,-131.6294C667.5,-131.6294 412.5,-131.6294 412.5,-131.6294 406.5,-131.6294 400.5,-125.6294 400.5,-119.6294 400.5,-119.6294 400.5,-107.6294 400.5,-107.6294 400.5,-101.6294 406.5,-95.6294 412.5,-95.6294 412.5,-95.6294 667.5,-95.6294 667.5,-95.6294 673.5,-95.6294 679.5,-101.6294 679.5,-107.6294 679.5,-107.6294 679.5,-119.6294 679.5,-119.6294 679.5,-125.6294 673.5,-131.6294 667.5,-131.6294"/>
<text text-anchor="middle" x="540" y="-111.1294" font-family="Times,serif" font-size="10.00" fill="#000033">App\Geometry\Shape\Solid\Polyhedron</text>
</g>
<!-- App\\Geometry\\Shape\\Solid\\Figure\\Cuboid&#45;&gt;App\\Geometry\\Shape\\Solid\\Polyhedron -->
<g id="edge14" class="edge">
<title>App\\Geometry\\Shape\\Solid\\Figure\\Cuboid&#45;&gt;App\\Geometry\\Shape\\Solid\\Polyhedron</title>
<path fill="none" stroke="#999999" d="M192.2024,-219.4958C236.1992,-196.6201 316.1926,-157.7285 389,-136.6294 393.2025,-135.4115 397.4906,-134.2551 401.8357,-133.1573"/>
<polygon fill="#999999" stroke="#999999" points="402.4664,-135.1649 407.7936,-131.6962 401.466,-131.0857 402.4664,-135.1649"/>
</g>
<!-- App\\Geometry\\Shape\\Solid\\Polyhedron&#45;&gt;App\\Millimeter -->
<g id="edge22" class="edge">
<title>App\\Geometry\\Shape\\Solid\\Polyhedron&#45;&gt;App\\Millimeter</title>
<path fill="none" stroke="#999999" d="M679.7157,-117.1715C979.3317,-124.7674 1674.1478,-142.3824 1892.8398,-147.9267"/>
<polygon fill="#999999" stroke="#999999" points="1892.8061,-150.0264 1898.8575,-148.0793 1892.9126,-145.8278 1892.8061,-150.0264"/>
</g>
<!-- App\\Geometry\\Shape\\Solid\\Polyhedron&#45;&gt;App\\Geometry\\ShapeInterface -->
<g id="edge21" class="edge">
<title>App\\Geometry\\Shape\\Solid\\Polyhedron&#45;&gt;App\\Geometry\\ShapeInterface</title>
<path fill="none" stroke="#999999" d="M665.0158,-131.6335C673.8278,-133.2211 682.5592,-134.8897 691,-136.6294 752.9169,-149.3902 822.4588,-167.9025 872.2805,-181.9097"/>
<polygon fill="#999999" stroke="#999999" points="871.912,-183.9876 878.2567,-183.5949 873.0519,-179.9453 871.912,-183.9876"/>
</g>
<!-- App\\Geometry\\Shape\\Solid\\Polyhedron&#45;&gt;App\\Geometry\\Shape\\Solid\\SolidFigureInterface -->
<g id="edge20" class="edge">
<title>App\\Geometry\\Shape\\Solid\\Polyhedron&#45;&gt;App\\Geometry\\Shape\\Solid\\SolidFigureInterface</title>
<path fill="none" stroke="#999999" d="M679.6198,-97.9221C709.9403,-94.5111 742.3039,-90.8702 773.5436,-87.3557"/>
<polygon fill="#999999" stroke="#999999" points="774.048,-89.4123 779.7756,-86.6546 773.5784,-85.2386 774.048,-89.4123"/>
</g>
<!-- App\\Geometry\\Shape\\Solid\\Polyhedron&#45;&gt;App\\Geometry\\Shape\\Solid\\Volume -->
<g id="edge23" class="edge">
<title>App\\Geometry\\Shape\\Solid\\Polyhedron&#45;&gt;App\\Geometry\\Shape\\Solid\\Volume</title>
<path fill="none" stroke="#999999" d="M679.6651,-108.7782C796.5503,-104.4883 967.7034,-97.6717 1117,-89.6294 1138.2199,-88.4863 1160.7194,-87.1319 1182.6261,-85.7363"/>
<polygon fill="#999999" stroke="#999999" points="1182.9342,-87.8209 1188.7877,-85.3417 1182.6657,-83.6295 1182.9342,-87.8209"/>
</g>
<!-- App\\Geometry\\Shape\\Solid\\Polyhedron&#45;&gt;App\\Geometry\\Shape\\Solid\\CubicMillimeter -->
<g id="edge24" class="edge">
<title>App\\Geometry\\Shape\\Solid\\Polyhedron&#45;&gt;App\\Geometry\\Shape\\Solid\\CubicMillimeter</title>
<path fill="none" stroke="#999999" d="M679.5081,-111.775C888.2272,-109.0007 1280.9878,-103.7802 1503.6009,-100.8212"/>
<polygon fill="#999999" stroke="#999999" points="1503.8381,-102.9183 1509.8097,-100.7387 1503.7822,-98.7187 1503.8381,-102.9183"/>
</g>
<!-- App\\Geometry\\Shape\\Solid\\Figure\\Cylinder -->
<g id="node13" class="node">
<title>App\\Geometry\\Shape\\Solid\\Figure\\Cylinder</title>
<path fill="#9999cc" stroke="#000000" d="M305,-131.6294C305,-131.6294 12,-131.6294 12,-131.6294 6,-131.6294 0,-125.6294 0,-119.6294 0,-119.6294 0,-107.6294 0,-107.6294 0,-101.6294 6,-95.6294 12,-95.6294 12,-95.6294 305,-95.6294 305,-95.6294 311,-95.6294 317,-101.6294 317,-107.6294 317,-107.6294 317,-119.6294 317,-119.6294 317,-125.6294 311,-131.6294 305,-131.6294"/>
<text text-anchor="middle" x="158.5" y="-111.1294" font-family="Times,serif" font-size="10.00" fill="#000033">App\Geometry\Shape\Solid\Figure\Cylinder</text>
</g>
<!-- App\\Geometry\\Shape\\Solid\\Figure\\Cylinder&#45;&gt;App\\Millimeter -->
<g id="edge18" class="edge">
<title>App\\Geometry\\Shape\\Solid\\Figure\\Cylinder&#45;&gt;App\\Millimeter</title>
<path fill="none" stroke="#999999" d="M202.6404,-95.5968C248.3786,-77.8831 322.3682,-51.9211 389,-40.6294 630.5483,.3045 695.0079,-24.6294 940,-24.6294 940,-24.6294 940,-24.6294 1313.5,-24.6294 1542.9346,-24.6294 1607.7799,-9.9332 1827,-77.6294 1864.0063,-89.0571 1902.5236,-111.2201 1928.5242,-127.9529"/>
<polygon fill="#999999" stroke="#999999" points="1927.7027,-129.9238 1933.8774,-131.4353 1929.993,-126.4031 1927.7027,-129.9238"/>
</g>
<!-- App\\Geometry\\Shape\\Solid\\Figure\\Cylinder&#45;&gt;App\\Geometry\\Shape\\Circle -->
<g id="edge19" class="edge">
<title>App\\Geometry\\Shape\\Solid\\Figure\\Cylinder&#45;&gt;App\\Geometry\\Shape\\Circle</title>
<path fill="none" stroke="#999999" d="M314.7714,-131.6528C354.0646,-136.1847 395.377,-140.9494 431.7368,-145.1429"/>
<polygon fill="#999999" stroke="#999999" points="431.795,-147.2635 437.9961,-145.8648 432.2762,-143.0911 431.795,-147.2635"/>
</g>
<!-- App\\Geometry\\Shape\\Solid\\Figure\\Cylinder&#45;&gt;App\\Geometry\\Shape\\Solid\\Polyhedron -->
<g id="edge17" class="edge">
<title>App\\Geometry\\Shape\\Solid\\Figure\\Cylinder&#45;&gt;App\\Geometry\\Shape\\Solid\\Polyhedron</title>
<path fill="none" stroke="#999999" d="M317.2519,-113.6294C342.8212,-113.6294 369.1801,-113.6294 394.4195,-113.6294"/>
<polygon fill="#999999" stroke="#999999" points="394.4672,-115.7295 400.4672,-113.6294 394.4672,-111.5295 394.4672,-115.7295"/>
</g>
</g>
</svg>
