<?xml version="1.0" encoding="UTF-8" standalone="no"?>
<!DOCTYPE svg PUBLIC "-//W3C//DTD SVG 1.1//EN"
 "http://www.w3.org/Graphics/SVG/1.1/DTD/svg11.dtd">
<!-- Generated by graphviz version 2.40.1 (0)
 -->
<!-- Title: G Pages: 1 -->
<svg width="909pt" height="540pt"
 viewBox="0.00 0.00 909.00 540.00" xmlns="http://www.w3.org/2000/svg" xmlns:xlink="http://www.w3.org/1999/xlink">
<g id="graph0" class="graph" transform="scale(1 1) rotate(0) translate(4 536)">
<title>G</title>
<polygon fill="#ffffff" stroke="transparent" points="-4,4 -4,-536 905,-536 905,4 -4,4"/>
<text text-anchor="middle" x="450.5" y="-6.6" font-family="Times,serif" font-size="8.00" fill="#000000">PhpDependencyAnalysis by Marco Muths v2.0.2</text>
<g id="clust1" class="cluster">
<title>cluster_0</title>
<path fill="#ccccff" stroke="#000033" d="M87.5,-25C87.5,-25 533.5,-25 533.5,-25 539.5,-25 545.5,-31 545.5,-37 545.5,-37 545.5,-131 545.5,-131 545.5,-137 539.5,-143 533.5,-143 533.5,-143 87.5,-143 87.5,-143 81.5,-143 75.5,-137 75.5,-131 75.5,-131 75.5,-37 75.5,-37 75.5,-31 81.5,-25 87.5,-25"/>
<text text-anchor="middle" x="102.5" y="-127.8" font-family="Times,serif" font-size="14.00" fill="#000033">Shape</text>
</g>
<g id="clust2" class="cluster">
<title>cluster_1</title>
<path fill="#ccccff" stroke="#000033" d="M68.5,-151C68.5,-151 881,-151 881,-151 887,-151 893,-157 893,-163 893,-163 893,-257 893,-257 893,-263 887,-269 881,-269 881,-269 68.5,-269 68.5,-269 62.5,-269 56.5,-263 56.5,-257 56.5,-257 56.5,-163 56.5,-163 56.5,-157 62.5,-151 68.5,-151"/>
<text text-anchor="middle" x="106" y="-253.8" font-family="Times,serif" font-size="14.00" fill="#000033">SolidFigure</text>
</g>
<g id="clust3" class="cluster">
<title>cluster_2</title>
<path fill="#ccccff" stroke="#000033" d="M20,-277C20,-277 276,-277 276,-277 282,-277 288,-283 288,-289 288,-289 288,-512 288,-512 288,-518 282,-524 276,-524 276,-524 20,-524 20,-524 14,-524 8,-518 8,-512 8,-512 8,-289 8,-289 8,-283 14,-277 20,-277"/>
<text text-anchor="middle" x="57.5" y="-508.8" font-family="Times,serif" font-size="14.00" fill="#000033">ValueObject</text>
</g>
<!-- Shape\\Circle -->
<g id="node1" class="node">
<title>Shape\\Circle</title>
<path fill="#9999cc" stroke="#000000" d="M189.5,-112C189.5,-112 106.5,-112 106.5,-112 100.5,-112 94.5,-106 94.5,-100 94.5,-100 94.5,-88 94.5,-88 94.5,-82 100.5,-76 106.5,-76 106.5,-76 189.5,-76 189.5,-76 195.5,-76 201.5,-82 201.5,-88 201.5,-88 201.5,-100 201.5,-100 201.5,-106 195.5,-112 189.5,-112"/>
<text text-anchor="middle" x="148" y="-91.5" font-family="Times,serif" font-size="10.00" fill="#000033">Shape\Circle</text>
</g>
<!-- Shape\\ShapeInterface -->
<g id="node2" class="node">
<title>Shape\\ShapeInterface</title>
<path fill="#9999cc" stroke="#000000" d="M525.5,-90C525.5,-90 382.5,-90 382.5,-90 376.5,-90 370.5,-84 370.5,-78 370.5,-78 370.5,-66 370.5,-66 370.5,-60 376.5,-54 382.5,-54 382.5,-54 525.5,-54 525.5,-54 531.5,-54 537.5,-60 537.5,-66 537.5,-66 537.5,-78 537.5,-78 537.5,-84 531.5,-90 525.5,-90"/>
<text text-anchor="middle" x="454" y="-69.5" font-family="Times,serif" font-size="10.00" fill="#000033">Shape\ShapeInterface</text>
</g>
<!-- Shape\\Circle&#45;&gt;Shape\\ShapeInterface -->
<g id="edge1" class="edge">
<title>Shape\\Circle&#45;&gt;Shape\\ShapeInterface</title>
<path fill="none" stroke="#999999" d="M201.6513,-90.1427C246.5434,-86.9152 311.5394,-82.2423 364.3248,-78.4472"/>
<polygon fill="#999999" stroke="#999999" points="364.5376,-80.5375 370.3715,-78.0125 364.2363,-76.3483 364.5376,-80.5375"/>
</g>
<!-- Shape\\Rectangle -->
<g id="node3" class="node">
<title>Shape\\Rectangle</title>
<path fill="#9999cc" stroke="#000000" d="M200.5,-69C200.5,-69 95.5,-69 95.5,-69 89.5,-69 83.5,-63 83.5,-57 83.5,-57 83.5,-45 83.5,-45 83.5,-39 89.5,-33 95.5,-33 95.5,-33 200.5,-33 200.5,-33 206.5,-33 212.5,-39 212.5,-45 212.5,-45 212.5,-57 212.5,-57 212.5,-63 206.5,-69 200.5,-69"/>
<text text-anchor="middle" x="148" y="-48.5" font-family="Times,serif" font-size="10.00" fill="#000033">Shape\Rectangle</text>
</g>
<!-- Shape\\Rectangle&#45;&gt;Shape\\ShapeInterface -->
<g id="edge2" class="edge">
<title>Shape\\Rectangle&#45;&gt;Shape\\ShapeInterface</title>
<path fill="none" stroke="#999999" d="M212.5208,-55.4279C256.5771,-58.4514 315.546,-62.4983 364.1818,-65.836"/>
<polygon fill="#999999" stroke="#999999" points="364.2339,-67.9444 370.3636,-66.2602 364.5215,-63.7543 364.2339,-67.9444"/>
</g>
<!-- SolidFigure\\ComplexFigure -->
<g id="node4" class="node">
<title>SolidFigure\\ComplexFigure</title>
<path fill="#9999cc" stroke="#000000" d="M544,-238C544,-238 364,-238 364,-238 358,-238 352,-232 352,-226 352,-226 352,-214 352,-214 352,-208 358,-202 364,-202 364,-202 544,-202 544,-202 550,-202 556,-208 556,-214 556,-214 556,-226 556,-226 556,-232 550,-238 544,-238"/>
<text text-anchor="middle" x="454" y="-217.5" font-family="Times,serif" font-size="10.00" fill="#000033">SolidFigure\ComplexFigure</text>
</g>
<!-- SolidFigure\\SolidFigureInterface -->
<g id="node5" class="node">
<title>SolidFigure\\SolidFigureInterface</title>
<path fill="#9999cc" stroke="#000000" d="M873,-216C873,-216 640,-216 640,-216 634,-216 628,-210 628,-204 628,-204 628,-192 628,-192 628,-186 634,-180 640,-180 640,-180 873,-180 873,-180 879,-180 885,-186 885,-192 885,-192 885,-204 885,-204 885,-210 879,-216 873,-216"/>
<text text-anchor="middle" x="756.5" y="-195.5" font-family="Times,serif" font-size="10.00" fill="#000033">SolidFigure\SolidFigureInterface</text>
</g>
<!-- SolidFigure\\ComplexFigure&#45;&gt;SolidFigure\\SolidFigureInterface -->
<g id="edge3" class="edge">
<title>SolidFigure\\ComplexFigure&#45;&gt;SolidFigure\\SolidFigureInterface</title>
<path fill="none" stroke="#999999" d="M556.4127,-212.5518C577.4067,-211.025 599.807,-209.3959 621.7392,-207.8008"/>
<polygon fill="#999999" stroke="#999999" points="622.0794,-209.8817 627.9112,-207.3519 621.7747,-205.6927 622.0794,-209.8817"/>
</g>
<!-- SolidFigure\\Cuboid -->
<g id="node6" class="node">
<title>SolidFigure\\Cuboid</title>
<path fill="#9999cc" stroke="#000000" d="M212,-238C212,-238 84,-238 84,-238 78,-238 72,-232 72,-226 72,-226 72,-214 72,-214 72,-208 78,-202 84,-202 84,-202 212,-202 212,-202 218,-202 224,-208 224,-214 224,-214 224,-226 224,-226 224,-232 218,-238 212,-238"/>
<text text-anchor="middle" x="148" y="-217.5" font-family="Times,serif" font-size="10.00" fill="#000033">SolidFigure\Cuboid</text>
</g>
<!-- SolidFigure\\Polyhedron -->
<g id="node7" class="node">
<title>SolidFigure\\Polyhedron</title>
<path fill="#9999cc" stroke="#000000" d="M533,-195C533,-195 375,-195 375,-195 369,-195 363,-189 363,-183 363,-183 363,-171 363,-171 363,-165 369,-159 375,-159 375,-159 533,-159 533,-159 539,-159 545,-165 545,-171 545,-171 545,-183 545,-183 545,-189 539,-195 533,-195"/>
<text text-anchor="middle" x="454" y="-174.5" font-family="Times,serif" font-size="10.00" fill="#000033">SolidFigure\Polyhedron</text>
</g>
<!-- SolidFigure\\Cuboid&#45;&gt;SolidFigure\\Polyhedron -->
<g id="edge4" class="edge">
<title>SolidFigure\\Cuboid&#45;&gt;SolidFigure\\Polyhedron</title>
<path fill="none" stroke="#999999" d="M224.0336,-209.3155C264.1835,-203.6736 313.8949,-196.688 356.8153,-190.6567"/>
<polygon fill="#999999" stroke="#999999" points="357.1754,-192.7268 362.8248,-189.8122 356.5909,-188.5677 357.1754,-192.7268"/>
</g>
<!-- SolidFigure\\Polyhedron&#45;&gt;SolidFigure\\SolidFigureInterface -->
<g id="edge6" class="edge">
<title>SolidFigure\\Polyhedron&#45;&gt;SolidFigure\\SolidFigureInterface</title>
<path fill="none" stroke="#999999" d="M545.1702,-183.3292C569.2474,-185.0006 595.75,-186.8405 621.6074,-188.6356"/>
<polygon fill="#999999" stroke="#999999" points="621.6812,-190.7456 627.8123,-189.0663 621.9721,-186.5557 621.6812,-190.7456"/>
</g>
<!-- SolidFigure\\Cylinder -->
<g id="node8" class="node">
<title>SolidFigure\\Cylinder</title>
<path fill="#9999cc" stroke="#000000" d="M219.5,-195C219.5,-195 76.5,-195 76.5,-195 70.5,-195 64.5,-189 64.5,-183 64.5,-183 64.5,-171 64.5,-171 64.5,-165 70.5,-159 76.5,-159 76.5,-159 219.5,-159 219.5,-159 225.5,-159 231.5,-165 231.5,-171 231.5,-171 231.5,-183 231.5,-183 231.5,-189 225.5,-195 219.5,-195"/>
<text text-anchor="middle" x="148" y="-174.5" font-family="Times,serif" font-size="10.00" fill="#000033">SolidFigure\Cylinder</text>
</g>
<!-- SolidFigure\\Cylinder&#45;&gt;SolidFigure\\Polyhedron -->
<g id="edge5" class="edge">
<title>SolidFigure\\Cylinder&#45;&gt;SolidFigure\\Polyhedron</title>
<path fill="none" stroke="#999999" d="M231.6158,-177C270.2487,-177 316.3695,-177 356.568,-177"/>
<polygon fill="#999999" stroke="#999999" points="356.9667,-179.1001 362.9667,-177 356.9666,-174.9001 356.9667,-179.1001"/>
</g>
<!-- ValueObject\\Area -->
<g id="node9" class="node">
<title>ValueObject\\Area</title>
<path fill="#9999cc" stroke="#000000" d="M204.5,-493C204.5,-493 91.5,-493 91.5,-493 85.5,-493 79.5,-487 79.5,-481 79.5,-481 79.5,-469 79.5,-469 79.5,-463 85.5,-457 91.5,-457 91.5,-457 204.5,-457 204.5,-457 210.5,-457 216.5,-463 216.5,-469 216.5,-469 216.5,-481 216.5,-481 216.5,-487 210.5,-493 204.5,-493"/>
<text text-anchor="middle" x="148" y="-472.5" font-family="Times,serif" font-size="10.00" fill="#000033">ValueObject\Area</text>
</g>
<!-- ValueObject\\Length -->
<g id="node10" class="node">
<title>ValueObject\\Length</title>
<path fill="#9999cc" stroke="#000000" d="M212,-450C212,-450 84,-450 84,-450 78,-450 72,-444 72,-438 72,-438 72,-426 72,-426 72,-420 78,-414 84,-414 84,-414 212,-414 212,-414 218,-414 224,-420 224,-426 224,-426 224,-438 224,-438 224,-444 218,-450 212,-450"/>
<text text-anchor="middle" x="148" y="-429.5" font-family="Times,serif" font-size="10.00" fill="#000033">ValueObject\Length</text>
</g>
<!-- ValueObject\\Unit\\CubicMillimeter -->
<g id="node11" class="node">
<title>ValueObject\\Unit\\CubicMillimeter</title>
<path fill="#9999cc" stroke="#000000" d="M264.5,-407C264.5,-407 31.5,-407 31.5,-407 25.5,-407 19.5,-401 19.5,-395 19.5,-395 19.5,-383 19.5,-383 19.5,-377 25.5,-371 31.5,-371 31.5,-371 264.5,-371 264.5,-371 270.5,-371 276.5,-377 276.5,-383 276.5,-383 276.5,-395 276.5,-395 276.5,-401 270.5,-407 264.5,-407"/>
<text text-anchor="middle" x="148" y="-386.5" font-family="Times,serif" font-size="10.00" fill="#000033">ValueObject\Unit\CubicMillimeter</text>
</g>
<!-- ValueObject\\Unit\\SquareMillimeter -->
<g id="node12" class="node">
<title>ValueObject\\Unit\\SquareMillimeter</title>
<path fill="#9999cc" stroke="#000000" d="M268,-364C268,-364 28,-364 28,-364 22,-364 16,-358 16,-352 16,-352 16,-340 16,-340 16,-334 22,-328 28,-328 28,-328 268,-328 268,-328 274,-328 280,-334 280,-340 280,-340 280,-352 280,-352 280,-358 274,-364 268,-364"/>
<text text-anchor="middle" x="148" y="-343.5" font-family="Times,serif" font-size="10.00" fill="#000033">ValueObject\Unit\SquareMillimeter</text>
</g>
<!-- ValueObject\\Volume -->
<g id="node13" class="node">
<title>ValueObject\\Volume</title>
<path fill="#9999cc" stroke="#000000" d="M212,-321C212,-321 84,-321 84,-321 78,-321 72,-315 72,-309 72,-309 72,-297 72,-297 72,-291 78,-285 84,-285 84,-285 212,-285 212,-285 218,-285 224,-291 224,-297 224,-297 224,-309 224,-309 224,-315 218,-321 212,-321"/>
<text text-anchor="middle" x="148" y="-300.5" font-family="Times,serif" font-size="10.00" fill="#000033">ValueObject\Volume</text>
</g>
</g>
</svg>
