<?xml version="1.0" encoding="UTF-8" standalone="no"?>
<!DOCTYPE svg PUBLIC "-//W3C//DTD SVG 1.1//EN"
 "http://www.w3.org/Graphics/SVG/1.1/DTD/svg11.dtd">
<!-- Generated by graphviz version 2.40.1 (0)
 -->
<!-- Title: G Pages: 1 -->
<svg width="1318pt" height="540pt"
 viewBox="0.00 0.00 1318.00 540.11" xmlns="http://www.w3.org/2000/svg" xmlns:xlink="http://www.w3.org/1999/xlink">
<g id="graph0" class="graph" transform="scale(1 1) rotate(0) translate(4 536.1124)">
<title>G</title>
<polygon fill="#ffffff" stroke="transparent" points="-4,4 -4,-536.1124 1314,-536.1124 1314,4 -4,4"/>
<text text-anchor="middle" x="655" y="-6.6" font-family="Times,serif" font-size="8.00" fill="#000000">PhpDependencyAnalysis by Marco Muths v2.0.2</text>
<g id="clust1" class="cluster">
<title>cluster_0</title>
<path fill="#ccccff" stroke="#000033" d="M598,-318.1356C598,-318.1356 644,-318.1356 644,-318.1356 650,-318.1356 656,-324.1356 656,-330.1356 656,-330.1356 656,-381.1356 656,-381.1356 656,-387.1356 650,-393.1356 644,-393.1356 644,-393.1356 598,-393.1356 598,-393.1356 592,-393.1356 586,-387.1356 586,-381.1356 586,-381.1356 586,-330.1356 586,-330.1356 586,-324.1356 592,-318.1356 598,-318.1356"/>
<text text-anchor="middle" x="609.5" y="-377.9356" font-family="Times,serif" font-size="14.00" fill="#000033">Area</text>
</g>
<g id="clust2" class="cluster">
<title>cluster_1</title>
<path fill="#ccccff" stroke="#000033" d="M728,-368.1356C728,-368.1356 857,-368.1356 857,-368.1356 863,-368.1356 869,-374.1356 869,-380.1356 869,-380.1356 869,-431.1356 869,-431.1356 869,-437.1356 863,-443.1356 857,-443.1356 857,-443.1356 728,-443.1356 728,-443.1356 722,-443.1356 716,-437.1356 716,-431.1356 716,-431.1356 716,-380.1356 716,-380.1356 716,-374.1356 722,-368.1356 728,-368.1356"/>
<text text-anchor="middle" x="784.5" y="-427.9356" font-family="Times,serif" font-size="14.00" fill="#000033">SquareMillimeter</text>
</g>
<g id="clust3" class="cluster">
<title>cluster_2</title>
<path fill="#ccccff" stroke="#000033" d="M937,-257.1356C937,-257.1356 1021,-257.1356 1021,-257.1356 1027,-257.1356 1033,-263.1356 1033,-269.1356 1033,-269.1356 1033,-320.1356 1033,-320.1356 1033,-326.1356 1027,-332.1356 1021,-332.1356 1021,-332.1356 937,-332.1356 937,-332.1356 931,-332.1356 925,-326.1356 925,-320.1356 925,-320.1356 925,-269.1356 925,-269.1356 925,-263.1356 931,-257.1356 937,-257.1356"/>
<text text-anchor="middle" x="971" y="-316.9356" font-family="Times,serif" font-size="14.00" fill="#000033">Millimeter</text>
</g>
<g id="clust4" class="cluster">
<title>cluster_3</title>
<path fill="#ccccff" stroke="#000033" d="M195,-413.1356C195,-413.1356 249,-413.1356 249,-413.1356 255,-413.1356 261,-419.1356 261,-425.1356 261,-425.1356 261,-476.1356 261,-476.1356 261,-482.1356 255,-488.1356 249,-488.1356 249,-488.1356 195,-488.1356 195,-488.1356 189,-488.1356 183,-482.1356 183,-476.1356 183,-476.1356 183,-425.1356 183,-425.1356 183,-419.1356 189,-413.1356 195,-413.1356"/>
<text text-anchor="middle" x="214" y="-472.9356" font-family="Times,serif" font-size="14.00" fill="#000033">Circle</text>
</g>
<g id="clust5" class="cluster">
<title>cluster_4</title>
<path fill="#ccccff" stroke="#000033" d="M377.5,-318.1356C377.5,-318.1356 491.5,-318.1356 491.5,-318.1356 497.5,-318.1356 503.5,-324.1356 503.5,-330.1356 503.5,-330.1356 503.5,-381.1356 503.5,-381.1356 503.5,-387.1356 497.5,-393.1356 491.5,-393.1356 491.5,-393.1356 377.5,-393.1356 377.5,-393.1356 371.5,-393.1356 365.5,-387.1356 365.5,-381.1356 365.5,-381.1356 365.5,-330.1356 365.5,-330.1356 365.5,-324.1356 371.5,-318.1356 377.5,-318.1356"/>
<text text-anchor="middle" x="426.5" y="-377.9356" font-family="Times,serif" font-size="14.00" fill="#000033">ShapeInterface</text>
</g>
<g id="clust6" class="cluster">
<title>cluster_5</title>
<path fill="#ccccff" stroke="#000033" d="M411.5,-432.1356C411.5,-432.1356 457.5,-432.1356 457.5,-432.1356 463.5,-432.1356 469.5,-438.1356 469.5,-444.1356 469.5,-444.1356 469.5,-495.1356 469.5,-495.1356 469.5,-501.1356 463.5,-507.1356 457.5,-507.1356 457.5,-507.1356 411.5,-507.1356 411.5,-507.1356 405.5,-507.1356 399.5,-501.1356 399.5,-495.1356 399.5,-495.1356 399.5,-444.1356 399.5,-444.1356 399.5,-438.1356 405.5,-432.1356 411.5,-432.1356"/>
<text text-anchor="middle" x="423" y="-491.9356" font-family="Times,serif" font-size="14.00" fill="#000033">M_PI</text>
</g>
<g id="clust7" class="cluster">
<title>cluster_6</title>
<path fill="#ccccff" stroke="#000033" d="M169,-121.1356C169,-121.1356 275,-121.1356 275,-121.1356 281,-121.1356 287,-127.1356 287,-133.1356 287,-133.1356 287,-184.1356 287,-184.1356 287,-190.1356 281,-196.1356 275,-196.1356 275,-196.1356 169,-196.1356 169,-196.1356 163,-196.1356 157,-190.1356 157,-184.1356 157,-184.1356 157,-133.1356 157,-133.1356 157,-127.1356 163,-121.1356 169,-121.1356"/>
<text text-anchor="middle" x="214" y="-180.9356" font-family="Times,serif" font-size="14.00" fill="#000033">ComplexFigure</text>
</g>
<g id="clust8" class="cluster">
<title>cluster_7</title>
<path fill="#ccccff" stroke="#000033" d="M355,-159.1356C355,-159.1356 514,-159.1356 514,-159.1356 520,-159.1356 526,-165.1356 526,-171.1356 526,-171.1356 526,-222.1356 526,-222.1356 526,-228.1356 520,-234.1356 514,-234.1356 514,-234.1356 355,-234.1356 355,-234.1356 349,-234.1356 343,-228.1356 343,-222.1356 343,-222.1356 343,-171.1356 343,-171.1356 343,-165.1356 349,-159.1356 355,-159.1356"/>
<text text-anchor="middle" x="426.5" y="-218.9356" font-family="Times,serif" font-size="14.00" fill="#000033">SolidFigureInterface</text>
</g>
<g id="clust9" class="cluster">
<title>cluster_8</title>
<path fill="#ccccff" stroke="#000033" d="M594,-167.1356C594,-167.1356 648,-167.1356 648,-167.1356 654,-167.1356 660,-173.1356 660,-179.1356 660,-179.1356 660,-230.1356 660,-230.1356 660,-236.1356 654,-242.1356 648,-242.1356 648,-242.1356 594,-242.1356 594,-242.1356 588,-242.1356 582,-236.1356 582,-230.1356 582,-230.1356 582,-179.1356 582,-179.1356 582,-173.1356 588,-167.1356 594,-167.1356"/>
<text text-anchor="middle" x="613" y="-226.9356" font-family="Times,serif" font-size="14.00" fill="#000033">Volume</text>
</g>
<g id="clust10" class="cluster">
<title>cluster_9</title>
<path fill="#ccccff" stroke="#000033" d="M385,-60.1356C385,-60.1356 484,-60.1356 484,-60.1356 490,-60.1356 496,-66.1356 496,-72.1356 496,-72.1356 496,-123.1356 496,-123.1356 496,-129.1356 490,-135.1356 484,-135.1356 484,-135.1356 385,-135.1356 385,-135.1356 379,-135.1356 373,-129.1356 373,-123.1356 373,-123.1356 373,-72.1356 373,-72.1356 373,-66.1356 379,-60.1356 385,-60.1356"/>
<text text-anchor="middle" x="426.5" y="-119.9356" font-family="Times,serif" font-size="14.00" fill="#000033">array_reduce</text>
</g>
<g id="clust11" class="cluster">
<title>cluster_10</title>
<path fill="#ccccff" stroke="#000033" d="M732,-189.1356C732,-189.1356 853,-189.1356 853,-189.1356 859,-189.1356 865,-195.1356 865,-201.1356 865,-201.1356 865,-252.1356 865,-252.1356 865,-258.1356 859,-264.1356 853,-264.1356 853,-264.1356 732,-264.1356 732,-264.1356 726,-264.1356 720,-258.1356 720,-252.1356 720,-252.1356 720,-201.1356 720,-201.1356 720,-195.1356 726,-189.1356 732,-189.1356"/>
<text text-anchor="middle" x="784.5" y="-248.9356" font-family="Times,serif" font-size="14.00" fill="#000033">CubicMillimeter</text>
</g>
<g id="clust12" class="cluster">
<title>cluster_11</title>
<path fill="#ccccff" stroke="#000033" d="M27.5,-182.1356C27.5,-182.1356 81.5,-182.1356 81.5,-182.1356 87.5,-182.1356 93.5,-188.1356 93.5,-194.1356 93.5,-194.1356 93.5,-245.1356 93.5,-245.1356 93.5,-251.1356 87.5,-257.1356 81.5,-257.1356 81.5,-257.1356 27.5,-257.1356 27.5,-257.1356 21.5,-257.1356 15.5,-251.1356 15.5,-245.1356 15.5,-245.1356 15.5,-194.1356 15.5,-194.1356 15.5,-188.1356 21.5,-182.1356 27.5,-182.1356"/>
<text text-anchor="middle" x="46.5" y="-241.9356" font-family="Times,serif" font-size="14.00" fill="#000033">Cuboid</text>
</g>
<g id="clust13" class="cluster">
<title>cluster_12</title>
<path fill="#ccccff" stroke="#000033" d="M180,-224.1356C180,-224.1356 264,-224.1356 264,-224.1356 270,-224.1356 276,-230.1356 276,-236.1356 276,-236.1356 276,-287.1356 276,-287.1356 276,-293.1356 270,-299.1356 264,-299.1356 264,-299.1356 180,-299.1356 180,-299.1356 174,-299.1356 168,-293.1356 168,-287.1356 168,-287.1356 168,-236.1356 168,-236.1356 168,-230.1356 174,-224.1356 180,-224.1356"/>
<text text-anchor="middle" x="214" y="-283.9356" font-family="Times,serif" font-size="14.00" fill="#000033">Polyhedron</text>
</g>
<g id="clust14" class="cluster">
<title>cluster_13</title>
<path fill="#ccccff" stroke="#000033" d="M184,-307.1356C184,-307.1356 260,-307.1356 260,-307.1356 266,-307.1356 272,-313.1356 272,-319.1356 272,-319.1356 272,-370.1356 272,-370.1356 272,-376.1356 266,-382.1356 260,-382.1356 260,-382.1356 184,-382.1356 184,-382.1356 178,-382.1356 172,-376.1356 172,-370.1356 172,-370.1356 172,-319.1356 172,-319.1356 172,-313.1356 178,-307.1356 184,-307.1356"/>
<text text-anchor="middle" x="214" y="-366.9356" font-family="Times,serif" font-size="14.00" fill="#000033">Rectangle</text>
</g>
<g id="clust15" class="cluster">
<title>cluster_14</title>
<path fill="#ccccff" stroke="#000033" d="M20,-265.1356C20,-265.1356 89,-265.1356 89,-265.1356 95,-265.1356 101,-271.1356 101,-277.1356 101,-277.1356 101,-328.1356 101,-328.1356 101,-334.1356 95,-340.1356 89,-340.1356 89,-340.1356 20,-340.1356 20,-340.1356 14,-340.1356 8,-334.1356 8,-328.1356 8,-328.1356 8,-277.1356 8,-277.1356 8,-271.1356 14,-265.1356 20,-265.1356"/>
<text text-anchor="middle" x="46.5" y="-324.9356" font-family="Times,serif" font-size="14.00" fill="#000033">Cylinder</text>
</g>
<g id="clust16" class="cluster">
<title>cluster_15</title>
<path fill="#ccccff" stroke="#000033" d="M1101,-299.1356C1101,-299.1356 1290,-299.1356 1290,-299.1356 1296,-299.1356 1302,-305.1356 1302,-311.1356 1302,-311.1356 1302,-362.1356 1302,-362.1356 1302,-368.1356 1296,-374.1356 1290,-374.1356 1290,-374.1356 1101,-374.1356 1101,-374.1356 1095,-374.1356 1089,-368.1356 1089,-362.1356 1089,-362.1356 1089,-311.1356 1089,-311.1356 1089,-305.1356 1095,-299.1356 1101,-299.1356"/>
<text text-anchor="middle" x="1187.5" y="-358.9356" font-family="Times,serif" font-size="14.00" fill="#000033">InvalidArgumentException</text>
</g>
<g id="clust17" class="cluster">
<title>cluster_16</title>
<path fill="#ccccff" stroke="#000033" d="M1172.5,-216.1356C1172.5,-216.1356 1218.5,-216.1356 1218.5,-216.1356 1224.5,-216.1356 1230.5,-222.1356 1230.5,-228.1356 1230.5,-228.1356 1230.5,-279.1356 1230.5,-279.1356 1230.5,-285.1356 1224.5,-291.1356 1218.5,-291.1356 1218.5,-291.1356 1172.5,-291.1356 1172.5,-291.1356 1166.5,-291.1356 1160.5,-285.1356 1160.5,-279.1356 1160.5,-279.1356 1160.5,-228.1356 1160.5,-228.1356 1160.5,-222.1356 1166.5,-216.1356 1172.5,-216.1356"/>
<text text-anchor="middle" x="1187.5" y="-275.9356" font-family="Times,serif" font-size="14.00" fill="#000033">round</text>
</g>
<!-- Area -->
<g id="node1" class="node">
<title>Area</title>
<path fill="#9999cc" stroke="#000000" d="M636,-362.1356C636,-362.1356 606,-362.1356 606,-362.1356 600,-362.1356 594,-356.1356 594,-350.1356 594,-350.1356 594,-338.1356 594,-338.1356 594,-332.1356 600,-326.1356 606,-326.1356 606,-326.1356 636,-326.1356 636,-326.1356 642,-326.1356 648,-332.1356 648,-338.1356 648,-338.1356 648,-350.1356 648,-350.1356 648,-356.1356 642,-362.1356 636,-362.1356"/>
<text text-anchor="middle" x="621" y="-341.6356" font-family="Times,serif" font-size="10.00" fill="#000033">Area</text>
</g>
<!-- SquareMillimeter -->
<g id="node2" class="node">
<title>SquareMillimeter</title>
<path fill="#9999cc" stroke="#000000" d="M849,-412.1356C849,-412.1356 736,-412.1356 736,-412.1356 730,-412.1356 724,-406.1356 724,-400.1356 724,-400.1356 724,-388.1356 724,-388.1356 724,-382.1356 730,-376.1356 736,-376.1356 736,-376.1356 849,-376.1356 849,-376.1356 855,-376.1356 861,-382.1356 861,-388.1356 861,-388.1356 861,-400.1356 861,-400.1356 861,-406.1356 855,-412.1356 849,-412.1356"/>
<text text-anchor="middle" x="792.5" y="-391.6356" font-family="Times,serif" font-size="10.00" fill="#000033">SquareMillimeter</text>
</g>
<!-- Area&#45;&gt;SquareMillimeter -->
<g id="edge1" class="edge">
<title>Area&#45;&gt;SquareMillimeter</title>
<path fill="none" stroke="#999999" d="M648.1747,-352.0582C668.722,-358.0487 697.8644,-366.545 724.5883,-374.3362"/>
<polygon fill="#999999" stroke="#999999" points="724.2574,-376.4271 730.6054,-376.0905 725.433,-372.395 724.2574,-376.4271"/>
</g>
<!-- Millimeter -->
<g id="node3" class="node">
<title>Millimeter</title>
<path fill="#9999cc" stroke="#000000" d="M1013,-301.1356C1013,-301.1356 945,-301.1356 945,-301.1356 939,-301.1356 933,-295.1356 933,-289.1356 933,-289.1356 933,-277.1356 933,-277.1356 933,-271.1356 939,-265.1356 945,-265.1356 945,-265.1356 1013,-265.1356 1013,-265.1356 1019,-265.1356 1025,-271.1356 1025,-277.1356 1025,-277.1356 1025,-289.1356 1025,-289.1356 1025,-295.1356 1019,-301.1356 1013,-301.1356"/>
<text text-anchor="middle" x="979" y="-280.6356" font-family="Times,serif" font-size="10.00" fill="#000033">Millimeter</text>
</g>
<!-- Area&#45;&gt;Millimeter -->
<g id="edge2" class="edge">
<title>Area&#45;&gt;Millimeter</title>
<path fill="none" stroke="#999999" d="M648.202,-339.5006C707.4807,-329.4 849.1792,-305.2559 926.4923,-292.0824"/>
<polygon fill="#999999" stroke="#999999" points="927.2948,-294.076 932.8568,-290.998 926.5893,-289.9357 927.2948,-294.076"/>
</g>
<!-- SquareMillimeter&#45;&gt;Millimeter -->
<g id="edge31" class="edge">
<title>SquareMillimeter&#45;&gt;Millimeter</title>
<path fill="none" stroke="#999999" d="M822.8795,-376.0545C855.7992,-356.4615 908.2862,-325.2226 943.1885,-304.4496"/>
<polygon fill="#999999" stroke="#999999" points="944.5516,-306.0822 948.6335,-301.2089 942.4035,-302.4731 944.5516,-306.0822"/>
</g>
<!-- InvalidArgumentException -->
<g id="node16" class="node">
<title>InvalidArgumentException</title>
<path fill="#9999cc" stroke="#000000" d="M1282,-343.1356C1282,-343.1356 1109,-343.1356 1109,-343.1356 1103,-343.1356 1097,-337.1356 1097,-331.1356 1097,-331.1356 1097,-319.1356 1097,-319.1356 1097,-313.1356 1103,-307.1356 1109,-307.1356 1109,-307.1356 1282,-307.1356 1282,-307.1356 1288,-307.1356 1294,-313.1356 1294,-319.1356 1294,-319.1356 1294,-331.1356 1294,-331.1356 1294,-337.1356 1288,-343.1356 1282,-343.1356"/>
<text text-anchor="middle" x="1195.5" y="-322.6356" font-family="Times,serif" font-size="10.00" fill="#000033">InvalidArgumentException</text>
</g>
<!-- Millimeter&#45;&gt;InvalidArgumentException -->
<g id="edge18" class="edge">
<title>Millimeter&#45;&gt;InvalidArgumentException</title>
<path fill="none" stroke="#999999" d="M1025.1791,-292.0941C1046.1036,-296.1534 1071.7016,-301.1192 1096.631,-305.9554"/>
<polygon fill="#999999" stroke="#999999" points="1096.3208,-308.0343 1102.611,-307.1155 1097.1208,-303.9112 1096.3208,-308.0343"/>
</g>
<!-- round -->
<g id="node17" class="node">
<title>round</title>
<path fill="#9999cc" stroke="#000000" d="M1210.5,-260.1356C1210.5,-260.1356 1180.5,-260.1356 1180.5,-260.1356 1174.5,-260.1356 1168.5,-254.1356 1168.5,-248.1356 1168.5,-248.1356 1168.5,-236.1356 1168.5,-236.1356 1168.5,-230.1356 1174.5,-224.1356 1180.5,-224.1356 1180.5,-224.1356 1210.5,-224.1356 1210.5,-224.1356 1216.5,-224.1356 1222.5,-230.1356 1222.5,-236.1356 1222.5,-236.1356 1222.5,-248.1356 1222.5,-248.1356 1222.5,-254.1356 1216.5,-260.1356 1210.5,-260.1356"/>
<text text-anchor="middle" x="1195.5" y="-239.6356" font-family="Times,serif" font-size="10.00" fill="#000033">round</text>
</g>
<!-- Millimeter&#45;&gt;round -->
<g id="edge19" class="edge">
<title>Millimeter&#45;&gt;round</title>
<path fill="none" stroke="#999999" d="M1025.1791,-274.3903C1066.3849,-266.5869 1125.7142,-255.3514 1162.3714,-248.4093"/>
<polygon fill="#999999" stroke="#999999" points="1162.9934,-250.429 1168.4978,-247.2491 1162.2118,-246.3023 1162.9934,-250.429"/>
</g>
<!-- Circle -->
<g id="node4" class="node">
<title>Circle</title>
<path fill="#9999cc" stroke="#000000" d="M241,-457.1356C241,-457.1356 203,-457.1356 203,-457.1356 197,-457.1356 191,-451.1356 191,-445.1356 191,-445.1356 191,-433.1356 191,-433.1356 191,-427.1356 197,-421.1356 203,-421.1356 203,-421.1356 241,-421.1356 241,-421.1356 247,-421.1356 253,-427.1356 253,-433.1356 253,-433.1356 253,-445.1356 253,-445.1356 253,-451.1356 247,-457.1356 241,-457.1356"/>
<text text-anchor="middle" x="222" y="-436.6356" font-family="Times,serif" font-size="10.00" fill="#000033">Circle</text>
</g>
<!-- Circle&#45;&gt;Area -->
<g id="edge5" class="edge">
<title>Circle&#45;&gt;Area</title>
<path fill="none" stroke="#999999" d="M253.4275,-437.9585C309.4938,-435.1026 429.8935,-425.5282 526,-394.1356 547.8359,-387.003 570.6662,-375.1488 588.4721,-364.7727"/>
<polygon fill="#999999" stroke="#999999" points="589.7327,-366.4671 593.8301,-361.6068 587.5961,-362.8511 589.7327,-366.4671"/>
</g>
<!-- Circle&#45;&gt;SquareMillimeter -->
<g id="edge6" class="edge">
<title>Circle&#45;&gt;SquareMillimeter</title>
<path fill="none" stroke="#999999" d="M245.383,-457.4245C268.632,-474.3563 306.0673,-498.3452 343,-508.1356 421.6179,-528.9762 446.3221,-524.4619 526,-508.1356 613.0445,-490.2998 706.7926,-442.837 756.5898,-415.0999"/>
<polygon fill="#999999" stroke="#999999" points="757.6482,-416.9141 761.8557,-412.1489 755.5949,-413.2502 757.6482,-416.9141"/>
</g>
<!-- Circle&#45;&gt;Millimeter -->
<g id="edge4" class="edge">
<title>Circle&#45;&gt;Millimeter</title>
<path fill="none" stroke="#999999" d="M241.5061,-457.3829C263.9745,-477.0339 302.9665,-507.0979 343,-519.1356 420.8884,-542.5558 445.1374,-527.873 526,-519.1356 681.1432,-502.3719 739.6258,-531.3865 869,-444.1356 920.0728,-409.6917 954.1182,-342.8652 969.5373,-307.097"/>
<polygon fill="#999999" stroke="#999999" points="971.6226,-307.5576 972.0261,-301.2135 967.7545,-305.9213 971.6226,-307.5576"/>
</g>
<!-- ShapeInterface -->
<g id="node5" class="node">
<title>ShapeInterface</title>
<path fill="#9999cc" stroke="#000000" d="M483.5,-362.1356C483.5,-362.1356 385.5,-362.1356 385.5,-362.1356 379.5,-362.1356 373.5,-356.1356 373.5,-350.1356 373.5,-350.1356 373.5,-338.1356 373.5,-338.1356 373.5,-332.1356 379.5,-326.1356 385.5,-326.1356 385.5,-326.1356 483.5,-326.1356 483.5,-326.1356 489.5,-326.1356 495.5,-332.1356 495.5,-338.1356 495.5,-338.1356 495.5,-350.1356 495.5,-350.1356 495.5,-356.1356 489.5,-362.1356 483.5,-362.1356"/>
<text text-anchor="middle" x="434.5" y="-341.6356" font-family="Times,serif" font-size="10.00" fill="#000033">ShapeInterface</text>
</g>
<!-- Circle&#45;&gt;ShapeInterface -->
<g id="edge3" class="edge">
<title>Circle&#45;&gt;ShapeInterface</title>
<path fill="none" stroke="#999999" d="M253.3551,-425.118C288.8975,-409.2284 347.1899,-383.1683 388.0234,-364.9133"/>
<polygon fill="#999999" stroke="#999999" points="389.2961,-366.6447 393.9166,-362.2787 387.5819,-362.8104 389.2961,-366.6447"/>
</g>
<!-- M_PI -->
<g id="node6" class="node">
<title>M_PI</title>
<path fill="#9999cc" stroke="#000000" d="M449.5,-476.1356C449.5,-476.1356 419.5,-476.1356 419.5,-476.1356 413.5,-476.1356 407.5,-470.1356 407.5,-464.1356 407.5,-464.1356 407.5,-452.1356 407.5,-452.1356 407.5,-446.1356 413.5,-440.1356 419.5,-440.1356 419.5,-440.1356 449.5,-440.1356 449.5,-440.1356 455.5,-440.1356 461.5,-446.1356 461.5,-452.1356 461.5,-452.1356 461.5,-464.1356 461.5,-464.1356 461.5,-470.1356 455.5,-476.1356 449.5,-476.1356"/>
<text text-anchor="middle" x="434.5" y="-455.6356" font-family="Times,serif" font-size="10.00" fill="#000033">M_PI</text>
</g>
<!-- Circle&#45;&gt;M_PI -->
<g id="edge7" class="edge">
<title>Circle&#45;&gt;M_PI</title>
<path fill="none" stroke="#999999" d="M253.3551,-441.9391C292.9976,-445.4836 360.9415,-451.5586 401.396,-455.1757"/>
<polygon fill="#999999" stroke="#999999" points="401.2381,-457.2698 407.4013,-455.7126 401.6122,-453.0865 401.2381,-457.2698"/>
</g>
<!-- ShapeInterface&#45;&gt;Area -->
<g id="edge29" class="edge">
<title>ShapeInterface&#45;&gt;Area</title>
<path fill="none" stroke="#999999" d="M495.5671,-344.1356C526.1223,-344.1356 561.9322,-344.1356 587.4501,-344.1356"/>
<polygon fill="#999999" stroke="#999999" points="587.7066,-346.2357 593.7066,-344.1356 587.7065,-342.0357 587.7066,-346.2357"/>
</g>
<!-- ComplexFigure -->
<g id="node7" class="node">
<title>ComplexFigure</title>
<path fill="#9999cc" stroke="#000000" d="M267,-165.1356C267,-165.1356 177,-165.1356 177,-165.1356 171,-165.1356 165,-159.1356 165,-153.1356 165,-153.1356 165,-141.1356 165,-141.1356 165,-135.1356 171,-129.1356 177,-129.1356 177,-129.1356 267,-129.1356 267,-129.1356 273,-129.1356 279,-135.1356 279,-141.1356 279,-141.1356 279,-153.1356 279,-153.1356 279,-159.1356 273,-165.1356 267,-165.1356"/>
<text text-anchor="middle" x="222" y="-144.6356" font-family="Times,serif" font-size="10.00" fill="#000033">ComplexFigure</text>
</g>
<!-- SolidFigureInterface -->
<g id="node8" class="node">
<title>SolidFigureInterface</title>
<path fill="#9999cc" stroke="#000000" d="M506,-203.1356C506,-203.1356 363,-203.1356 363,-203.1356 357,-203.1356 351,-197.1356 351,-191.1356 351,-191.1356 351,-179.1356 351,-179.1356 351,-173.1356 357,-167.1356 363,-167.1356 363,-167.1356 506,-167.1356 506,-167.1356 512,-167.1356 518,-173.1356 518,-179.1356 518,-179.1356 518,-191.1356 518,-191.1356 518,-197.1356 512,-203.1356 506,-203.1356"/>
<text text-anchor="middle" x="434.5" y="-182.6356" font-family="Times,serif" font-size="10.00" fill="#000033">SolidFigureInterface</text>
</g>
<!-- ComplexFigure&#45;&gt;SolidFigureInterface -->
<g id="edge8" class="edge">
<title>ComplexFigure&#45;&gt;SolidFigureInterface</title>
<path fill="none" stroke="#999999" d="M279.2256,-157.3689C299.4248,-160.9809 322.6516,-165.1344 344.8823,-169.1098"/>
<polygon fill="#999999" stroke="#999999" points="344.5392,-171.1817 350.8152,-170.1708 345.2786,-167.0473 344.5392,-171.1817"/>
</g>
<!-- Volume -->
<g id="node9" class="node">
<title>Volume</title>
<path fill="#9999cc" stroke="#000000" d="M640,-211.1356C640,-211.1356 602,-211.1356 602,-211.1356 596,-211.1356 590,-205.1356 590,-199.1356 590,-199.1356 590,-187.1356 590,-187.1356 590,-181.1356 596,-175.1356 602,-175.1356 602,-175.1356 640,-175.1356 640,-175.1356 646,-175.1356 652,-181.1356 652,-187.1356 652,-187.1356 652,-199.1356 652,-199.1356 652,-205.1356 646,-211.1356 640,-211.1356"/>
<text text-anchor="middle" x="621" y="-190.6356" font-family="Times,serif" font-size="10.00" fill="#000033">Volume</text>
</g>
<!-- ComplexFigure&#45;&gt;Volume -->
<g id="edge9" class="edge">
<title>ComplexFigure&#45;&gt;Volume</title>
<path fill="none" stroke="#999999" d="M279.2048,-143.8669C340.7754,-141.5834 441.2813,-141.4398 526,-158.1356 545.6769,-162.0134 566.6859,-169.3874 583.9305,-176.3707"/>
<polygon fill="#999999" stroke="#999999" points="583.2794,-178.3737 589.627,-178.7184 584.8798,-174.4905 583.2794,-178.3737"/>
</g>
<!-- array_reduce -->
<g id="node10" class="node">
<title>array_reduce</title>
<path fill="#9999cc" stroke="#000000" d="M476,-104.1356C476,-104.1356 393,-104.1356 393,-104.1356 387,-104.1356 381,-98.1356 381,-92.1356 381,-92.1356 381,-80.1356 381,-80.1356 381,-74.1356 387,-68.1356 393,-68.1356 393,-68.1356 476,-68.1356 476,-68.1356 482,-68.1356 488,-74.1356 488,-80.1356 488,-80.1356 488,-92.1356 488,-92.1356 488,-98.1356 482,-104.1356 476,-104.1356"/>
<text text-anchor="middle" x="434.5" y="-83.6356" font-family="Times,serif" font-size="10.00" fill="#000033">array_reduce</text>
</g>
<!-- ComplexFigure&#45;&gt;array_reduce -->
<g id="edge10" class="edge">
<title>ComplexFigure&#45;&gt;array_reduce</title>
<path fill="none" stroke="#999999" d="M279.2256,-130.7084C308.8437,-122.2063 344.9713,-111.8356 374.9231,-103.2376"/>
<polygon fill="#999999" stroke="#999999" points="375.6398,-105.2168 380.8274,-101.5428 374.4809,-101.1798 375.6398,-105.2168"/>
</g>
<!-- SolidFigureInterface&#45;&gt;Volume -->
<g id="edge30" class="edge">
<title>SolidFigureInterface&#45;&gt;Volume</title>
<path fill="none" stroke="#999999" d="M518.2031,-188.726C540.9972,-189.7038 564.5601,-190.7146 583.3671,-191.5213"/>
<polygon fill="#999999" stroke="#999999" points="583.4703,-193.6276 589.5548,-191.7867 583.6503,-189.4314 583.4703,-193.6276"/>
</g>
<!-- CubicMillimeter -->
<g id="node11" class="node">
<title>CubicMillimeter</title>
<path fill="#9999cc" stroke="#000000" d="M845,-233.1356C845,-233.1356 740,-233.1356 740,-233.1356 734,-233.1356 728,-227.1356 728,-221.1356 728,-221.1356 728,-209.1356 728,-209.1356 728,-203.1356 734,-197.1356 740,-197.1356 740,-197.1356 845,-197.1356 845,-197.1356 851,-197.1356 857,-203.1356 857,-209.1356 857,-209.1356 857,-221.1356 857,-221.1356 857,-227.1356 851,-233.1356 845,-233.1356"/>
<text text-anchor="middle" x="792.5" y="-212.6356" font-family="Times,serif" font-size="10.00" fill="#000033">CubicMillimeter</text>
</g>
<!-- Volume&#45;&gt;CubicMillimeter -->
<g id="edge32" class="edge">
<title>Volume&#45;&gt;CubicMillimeter</title>
<path fill="none" stroke="#999999" d="M652.0574,-197.1196C671.5452,-199.6195 697.5011,-202.9491 721.7941,-206.0654"/>
<polygon fill="#999999" stroke="#999999" points="721.7111,-208.1719 727.9295,-206.8525 722.2455,-204.006 721.7111,-208.1719"/>
</g>
<!-- CubicMillimeter&#45;&gt;Millimeter -->
<g id="edge11" class="edge">
<title>CubicMillimeter&#45;&gt;Millimeter</title>
<path fill="none" stroke="#999999" d="M841.9889,-233.1798C868.1739,-242.7271 900.3126,-254.4453 926.8807,-264.1323"/>
<polygon fill="#999999" stroke="#999999" points="926.4517,-266.2111 932.8081,-266.2935 927.8905,-262.2652 926.4517,-266.2111"/>
</g>
<!-- Cuboid -->
<g id="node12" class="node">
<title>Cuboid</title>
<path fill="#9999cc" stroke="#000000" d="M73.5,-226.1356C73.5,-226.1356 35.5,-226.1356 35.5,-226.1356 29.5,-226.1356 23.5,-220.1356 23.5,-214.1356 23.5,-214.1356 23.5,-202.1356 23.5,-202.1356 23.5,-196.1356 29.5,-190.1356 35.5,-190.1356 35.5,-190.1356 73.5,-190.1356 73.5,-190.1356 79.5,-190.1356 85.5,-196.1356 85.5,-202.1356 85.5,-202.1356 85.5,-214.1356 85.5,-214.1356 85.5,-220.1356 79.5,-226.1356 73.5,-226.1356"/>
<text text-anchor="middle" x="54.5" y="-205.6356" font-family="Times,serif" font-size="10.00" fill="#000033">Cuboid</text>
</g>
<!-- Cuboid&#45;&gt;Millimeter -->
<g id="edge13" class="edge">
<title>Cuboid&#45;&gt;Millimeter</title>
<path fill="none" stroke="#999999" d="M60.165,-189.9176C71.9156,-155.5935 102.4964,-81.942 157,-50.1356 263.7216,12.1436 310.9355,-33.1356 434.5,-33.1356 434.5,-33.1356 434.5,-33.1356 621,-33.1356 732.2532,-33.1356 778.3248,-2.674 869,-67.1356 935.1713,-114.1772 964.0802,-212.9906 974.3086,-258.827"/>
<polygon fill="#999999" stroke="#999999" points="972.3082,-259.5122 975.6299,-264.9323 976.4132,-258.6238 972.3082,-259.5122"/>
</g>
<!-- Polyhedron -->
<g id="node13" class="node">
<title>Polyhedron</title>
<path fill="#9999cc" stroke="#000000" d="M256,-268.1356C256,-268.1356 188,-268.1356 188,-268.1356 182,-268.1356 176,-262.1356 176,-256.1356 176,-256.1356 176,-244.1356 176,-244.1356 176,-238.1356 182,-232.1356 188,-232.1356 188,-232.1356 256,-232.1356 256,-232.1356 262,-232.1356 268,-238.1356 268,-244.1356 268,-244.1356 268,-256.1356 268,-256.1356 268,-262.1356 262,-268.1356 256,-268.1356"/>
<text text-anchor="middle" x="222" y="-247.6356" font-family="Times,serif" font-size="10.00" fill="#000033">Polyhedron</text>
</g>
<!-- Cuboid&#45;&gt;Polyhedron -->
<g id="edge12" class="edge">
<title>Cuboid&#45;&gt;Polyhedron</title>
<path fill="none" stroke="#999999" d="M85.6129,-215.937C109.1853,-221.8477 142.1136,-230.1043 169.7097,-237.024"/>
<polygon fill="#999999" stroke="#999999" points="169.5426,-239.147 175.8732,-238.5694 170.5641,-235.0731 169.5426,-239.147"/>
</g>
<!-- Rectangle -->
<g id="node14" class="node">
<title>Rectangle</title>
<path fill="#9999cc" stroke="#000000" d="M252,-351.1356C252,-351.1356 192,-351.1356 192,-351.1356 186,-351.1356 180,-345.1356 180,-339.1356 180,-339.1356 180,-327.1356 180,-327.1356 180,-321.1356 186,-315.1356 192,-315.1356 192,-315.1356 252,-315.1356 252,-315.1356 258,-315.1356 264,-321.1356 264,-327.1356 264,-327.1356 264,-339.1356 264,-339.1356 264,-345.1356 258,-351.1356 252,-351.1356"/>
<text text-anchor="middle" x="222" y="-330.6356" font-family="Times,serif" font-size="10.00" fill="#000033">Rectangle</text>
</g>
<!-- Cuboid&#45;&gt;Rectangle -->
<g id="edge14" class="edge">
<title>Cuboid&#45;&gt;Rectangle</title>
<path fill="none" stroke="#999999" d="M71.8086,-226.2932C91.2788,-246.0643 124.4506,-277.8375 157,-300.1356 163.1176,-304.3265 169.84,-308.3277 176.5698,-312.0066"/>
<polygon fill="#999999" stroke="#999999" points="175.9294,-314.0451 182.2114,-315.018 177.9072,-310.34 175.9294,-314.0451"/>
</g>
<!-- Polyhedron&#45;&gt;Millimeter -->
<g id="edge22" class="edge">
<title>Polyhedron&#45;&gt;Millimeter</title>
<path fill="none" stroke="#999999" d="M268.2178,-254.4605C290.7574,-256.4406 318.2762,-258.6677 343,-260.1356 559.4963,-272.9894 817.9057,-279.6538 926.6734,-282.0633"/>
<polygon fill="#999999" stroke="#999999" points="926.6358,-284.1629 932.6805,-282.1954 926.7282,-279.9639 926.6358,-284.1629"/>
</g>
<!-- Polyhedron&#45;&gt;ShapeInterface -->
<g id="edge21" class="edge">
<title>Polyhedron&#45;&gt;ShapeInterface</title>
<path fill="none" stroke="#999999" d="M262.7207,-268.1485C298.4116,-283.9364 350.2872,-306.8838 387.6827,-323.4258"/>
<polygon fill="#999999" stroke="#999999" points="387.2187,-325.5168 393.5554,-326.0236 388.9178,-321.6758 387.2187,-325.5168"/>
</g>
<!-- Polyhedron&#45;&gt;SolidFigureInterface -->
<g id="edge20" class="edge">
<title>Polyhedron&#45;&gt;SolidFigureInterface</title>
<path fill="none" stroke="#999999" d="M268.1093,-236.0315C297.7571,-226.9628 336.7203,-215.0446 369.4889,-205.0213"/>
<polygon fill="#999999" stroke="#999999" points="370.4085,-206.9361 375.5318,-203.1729 369.1799,-202.9198 370.4085,-206.9361"/>
</g>
<!-- Polyhedron&#45;&gt;Volume -->
<g id="edge23" class="edge">
<title>Polyhedron&#45;&gt;Volume</title>
<path fill="none" stroke="#999999" d="M268.0525,-253.0331C328.246,-255.6533 436.5349,-256.3463 526,-235.1356 546.021,-230.3889 567.0673,-221.5299 584.2476,-213.1674"/>
<polygon fill="#999999" stroke="#999999" points="585.475,-214.9029 589.9187,-210.3571 583.6101,-211.1396 585.475,-214.9029"/>
</g>
<!-- Polyhedron&#45;&gt;CubicMillimeter -->
<g id="edge24" class="edge">
<title>Polyhedron&#45;&gt;CubicMillimeter</title>
<path fill="none" stroke="#999999" d="M268.2718,-252.7345C348.4343,-256.4937 518.1659,-261.1741 660,-243.1356 680.1859,-240.5683 701.867,-236.5367 721.7254,-232.3242"/>
<polygon fill="#999999" stroke="#999999" points="722.4016,-234.3269 727.8261,-231.0125 721.5187,-230.2207 722.4016,-234.3269"/>
</g>
<!-- Rectangle&#45;&gt;Area -->
<g id="edge27" class="edge">
<title>Rectangle&#45;&gt;Area</title>
<path fill="none" stroke="#999999" d="M264.0143,-325.8927C322.8714,-316.8874 433.0875,-304.1886 526,-317.1356 547.0552,-320.0695 569.999,-326.4947 588.0633,-332.3412"/>
<polygon fill="#999999" stroke="#999999" points="587.6367,-334.4117 593.9926,-334.2959 588.9517,-330.4228 587.6367,-334.4117"/>
</g>
<!-- Rectangle&#45;&gt;SquareMillimeter -->
<g id="edge28" class="edge">
<title>Rectangle&#45;&gt;SquareMillimeter</title>
<path fill="none" stroke="#999999" d="M248.9272,-351.3555C272.5525,-366.1709 308.4404,-385.9169 343,-394.1356 471.9497,-424.8012 627.6562,-414.7756 717.8529,-404.5547"/>
<polygon fill="#999999" stroke="#999999" points="718.2453,-406.6234 723.9654,-403.8503 717.7644,-402.451 718.2453,-406.6234"/>
</g>
<!-- Rectangle&#45;&gt;Millimeter -->
<g id="edge26" class="edge">
<title>Rectangle&#45;&gt;Millimeter</title>
<path fill="none" stroke="#999999" d="M264.047,-323.5849C287.2129,-318.7174 316.5543,-313.1939 343,-310.1356 455.5269,-297.1223 795.6582,-287.6371 926.723,-284.3741"/>
<polygon fill="#999999" stroke="#999999" points="926.8583,-286.4715 932.8044,-284.2234 926.7542,-282.2728 926.8583,-286.4715"/>
</g>
<!-- Rectangle&#45;&gt;ShapeInterface -->
<g id="edge25" class="edge">
<title>Rectangle&#45;&gt;ShapeInterface</title>
<path fill="none" stroke="#999999" d="M264.2372,-335.322C293.6353,-336.8437 333.457,-338.9051 367.1972,-340.6517"/>
<polygon fill="#999999" stroke="#999999" points="367.322,-342.7608 373.4225,-340.9739 367.5392,-338.5665 367.322,-342.7608"/>
</g>
<!-- Cylinder -->
<g id="node15" class="node">
<title>Cylinder</title>
<path fill="#9999cc" stroke="#000000" d="M81,-309.1356C81,-309.1356 28,-309.1356 28,-309.1356 22,-309.1356 16,-303.1356 16,-297.1356 16,-297.1356 16,-285.1356 16,-285.1356 16,-279.1356 22,-273.1356 28,-273.1356 28,-273.1356 81,-273.1356 81,-273.1356 87,-273.1356 93,-279.1356 93,-285.1356 93,-285.1356 93,-297.1356 93,-297.1356 93,-303.1356 87,-309.1356 81,-309.1356"/>
<text text-anchor="middle" x="54.5" y="-288.6356" font-family="Times,serif" font-size="10.00" fill="#000033">Cylinder</text>
</g>
<!-- Cylinder&#45;&gt;Millimeter -->
<g id="edge16" class="edge">
<title>Cylinder&#45;&gt;Millimeter</title>
<path fill="none" stroke="#999999" d="M85.6603,-272.7931C91.2739,-268.4983 96.6993,-263.569 101,-258.1356 142.0802,-206.2352 108.6187,-165.3072 157,-120.1356 250.1338,-33.1803 307.0829,-48.1356 434.5,-48.1356 434.5,-48.1356 434.5,-48.1356 621,-48.1356 774.6677,-48.1356 913.5659,-201.3235 961.3734,-260.3374"/>
<polygon fill="#999999" stroke="#999999" points="959.7929,-261.7232 965.1877,-265.0857 963.0673,-259.0929 959.7929,-261.7232"/>
</g>
<!-- Cylinder&#45;&gt;Circle -->
<g id="edge17" class="edge">
<title>Cylinder&#45;&gt;Circle</title>
<path fill="none" stroke="#999999" d="M74.4262,-309.2376C95.0024,-327.8788 128.0902,-357.7126 157,-383.1356 169.837,-394.4243 184.2277,-406.8461 196.1991,-417.1163"/>
<polygon fill="#999999" stroke="#999999" points="194.907,-418.7747 200.8293,-421.0848 197.6402,-415.5857 194.907,-418.7747"/>
</g>
<!-- Cylinder&#45;&gt;Polyhedron -->
<g id="edge15" class="edge">
<title>Cylinder&#45;&gt;Polyhedron</title>
<path fill="none" stroke="#999999" d="M93.3489,-281.6263C116.1638,-276.0417 145.2904,-268.9122 170.058,-262.8497"/>
<polygon fill="#999999" stroke="#999999" points="170.5965,-264.88 175.9252,-261.4136 169.5979,-260.8004 170.5965,-264.88"/>
</g>
</g>
</svg>
