<?xml version="1.0" encoding="UTF-8" standalone="no"?>
<!DOCTYPE svg PUBLIC "-//W3C//DTD SVG 1.1//EN"
 "http://www.w3.org/Graphics/SVG/1.1/DTD/svg11.dtd">
<!-- Generated by graphviz version 2.40.1 (0)
 -->
<!-- Title: G Pages: 1 -->
<svg width="632pt" height="188pt"
 viewBox="0.00 0.00 632.00 188.00" xmlns="http://www.w3.org/2000/svg" xmlns:xlink="http://www.w3.org/1999/xlink">
<g id="graph0" class="graph" transform="scale(1 1) rotate(0) translate(4 184)">
<title>G</title>
<polygon fill="#ffffff" stroke="transparent" points="-4,4 -4,-184 628,-184 628,4 -4,4"/>
<text text-anchor="middle" x="312" y="-6.6" font-family="Times,serif" font-size="8.00" fill="#000000">PhpDependencyAnalysis by Marco Muths v2.0.2</text>
<g id="clust1" class="cluster">
<title>cluster_0</title>
<path fill="#ccccff" stroke="#000033" d="M20,-54C20,-54 380,-54 380,-54 386,-54 392,-60 392,-66 392,-66 392,-160 392,-160 392,-166 386,-172 380,-172 380,-172 20,-172 20,-172 14,-172 8,-166 8,-160 8,-160 8,-66 8,-66 8,-60 14,-54 20,-54"/>
<text text-anchor="middle" x="35" y="-156.8" font-family="Times,serif" font-size="14.00" fill="#000033">Shape</text>
</g>
<g id="clust2" class="cluster">
<title>cluster_1</title>
<path fill="#ccccff" stroke="#000033" d="M460,-25C460,-25 604,-25 604,-25 610,-25 616,-31 616,-37 616,-37 616,-131 616,-131 616,-137 610,-143 604,-143 604,-143 460,-143 460,-143 454,-143 448,-137 448,-131 448,-131 448,-37 448,-37 448,-31 454,-25 460,-25"/>
<text text-anchor="middle" x="497.5" y="-127.8" font-family="Times,serif" font-size="14.00" fill="#000033">ValueObject</text>
</g>
<!-- Shape\\Circle -->
<g id="node1" class="node">
<title>Shape\\Circle</title>
<path fill="#9999cc" stroke="#000000" d="M122,-141C122,-141 39,-141 39,-141 33,-141 27,-135 27,-129 27,-129 27,-117 27,-117 27,-111 33,-105 39,-105 39,-105 122,-105 122,-105 128,-105 134,-111 134,-117 134,-117 134,-129 134,-129 134,-135 128,-141 122,-141"/>
<text text-anchor="middle" x="80.5" y="-120.5" font-family="Times,serif" font-size="10.00" fill="#000033">Shape\Circle</text>
</g>
<!-- Shape\\ShapeInterface -->
<g id="node2" class="node">
<title>Shape\\ShapeInterface</title>
<path fill="#9999cc" stroke="#000000" d="M372,-141C372,-141 229,-141 229,-141 223,-141 217,-135 217,-129 217,-129 217,-117 217,-117 217,-111 223,-105 229,-105 229,-105 372,-105 372,-105 378,-105 384,-111 384,-117 384,-117 384,-129 384,-129 384,-135 378,-141 372,-141"/>
<text text-anchor="middle" x="300.5" y="-120.5" font-family="Times,serif" font-size="10.00" fill="#000033">Shape\ShapeInterface</text>
</g>
<!-- Shape\\Circle&#45;&gt;Shape\\ShapeInterface -->
<g id="edge1" class="edge">
<title>Shape\\Circle&#45;&gt;Shape\\ShapeInterface</title>
<path fill="none" stroke="#999999" d="M134.0367,-123C156.9978,-123 184.462,-123 210.3992,-123"/>
<polygon fill="#999999" stroke="#999999" points="210.6048,-125.1001 216.6048,-123 210.6047,-120.9001 210.6048,-125.1001"/>
</g>
<!-- ValueObject\\Length -->
<g id="node4" class="node">
<title>ValueObject\\Length</title>
<path fill="#9999cc" stroke="#000000" d="M596,-69C596,-69 468,-69 468,-69 462,-69 456,-63 456,-57 456,-57 456,-45 456,-45 456,-39 462,-33 468,-33 468,-33 596,-33 596,-33 602,-33 608,-39 608,-45 608,-45 608,-57 608,-57 608,-63 602,-69 596,-69"/>
<text text-anchor="middle" x="532" y="-48.5" font-family="Times,serif" font-size="10.00" fill="#000033">ValueObject\Length</text>
</g>
<!-- Shape\\Circle&#45;&gt;ValueObject\\Length -->
<g id="edge2" class="edge">
<title>Shape\\Circle&#45;&gt;ValueObject\\Length</title>
<path fill="none" stroke="#999999" d="M134.063,-109.5547C159.1356,-103.591 189.4763,-96.8434 217,-92 294.2037,-78.4143 314.2712,-80.16 392,-70 410.5736,-67.5722 430.5243,-64.9021 449.3775,-62.3503"/>
<polygon fill="#999999" stroke="#999999" points="450.062,-64.3768 455.7256,-61.49 449.4979,-60.2149 450.062,-64.3768"/>
</g>
<!-- ValueObject\\Area -->
<g id="node5" class="node">
<title>ValueObject\\Area</title>
<path fill="#9999cc" stroke="#000000" d="M588.5,-112C588.5,-112 475.5,-112 475.5,-112 469.5,-112 463.5,-106 463.5,-100 463.5,-100 463.5,-88 463.5,-88 463.5,-82 469.5,-76 475.5,-76 475.5,-76 588.5,-76 588.5,-76 594.5,-76 600.5,-82 600.5,-88 600.5,-88 600.5,-100 600.5,-100 600.5,-106 594.5,-112 588.5,-112"/>
<text text-anchor="middle" x="532" y="-91.5" font-family="Times,serif" font-size="10.00" fill="#000033">ValueObject\Area</text>
</g>
<!-- Shape\\Circle&#45;&gt;ValueObject\\Area -->
<g id="edge3" class="edge">
<title>Shape\\Circle&#45;&gt;ValueObject\\Area</title>
<path fill="none" stroke="#999999" d="M134.1172,-113.1368C159.2013,-108.938 189.5359,-104.4513 217,-102 298.9499,-94.6855 393.3316,-93.2042 457.253,-93.2268"/>
<polygon fill="#999999" stroke="#999999" points="457.3401,-95.3268 463.3424,-93.2336 457.3448,-91.1268 457.3401,-95.3268"/>
</g>
<!-- Shape\\ShapeInterface&#45;&gt;ValueObject\\Area -->
<g id="edge7" class="edge">
<title>Shape\\ShapeInterface&#45;&gt;ValueObject\\Area</title>
<path fill="none" stroke="#999999" d="M384.0768,-112.5303C407.9734,-109.5368 433.8573,-106.2943 457.1927,-103.3711"/>
<polygon fill="#999999" stroke="#999999" points="457.6919,-105.4251 463.3843,-102.5955 457.1697,-101.2577 457.6919,-105.4251"/>
</g>
<!-- Shape\\Rectangle -->
<g id="node3" class="node">
<title>Shape\\Rectangle</title>
<path fill="#9999cc" stroke="#000000" d="M133,-98C133,-98 28,-98 28,-98 22,-98 16,-92 16,-86 16,-86 16,-74 16,-74 16,-68 22,-62 28,-62 28,-62 133,-62 133,-62 139,-62 145,-68 145,-74 145,-74 145,-86 145,-86 145,-92 139,-98 133,-98"/>
<text text-anchor="middle" x="80.5" y="-77.5" font-family="Times,serif" font-size="10.00" fill="#000033">Shape\Rectangle</text>
</g>
<!-- Shape\\Rectangle&#45;&gt;Shape\\ShapeInterface -->
<g id="edge4" class="edge">
<title>Shape\\Rectangle&#45;&gt;Shape\\ShapeInterface</title>
<path fill="none" stroke="#999999" d="M145.0208,-92.6109C165.5337,-96.6202 188.6077,-101.1301 210.5759,-105.4239"/>
<polygon fill="#999999" stroke="#999999" points="210.4483,-107.5386 216.7397,-106.6287 211.254,-103.4166 210.4483,-107.5386"/>
</g>
<!-- Shape\\Rectangle&#45;&gt;ValueObject\\Length -->
<g id="edge5" class="edge">
<title>Shape\\Rectangle&#45;&gt;ValueObject\\Length</title>
<path fill="none" stroke="#999999" d="M145.1889,-75.845C225.3165,-70.6984 361.9303,-61.9236 449.5145,-56.2981"/>
<polygon fill="#999999" stroke="#999999" points="449.8814,-58.3789 455.7344,-55.8986 449.6121,-54.1876 449.8814,-58.3789"/>
</g>
<!-- Shape\\Rectangle&#45;&gt;ValueObject\\Area -->
<g id="edge6" class="edge">
<title>Shape\\Rectangle&#45;&gt;ValueObject\\Area</title>
<path fill="none" stroke="#999999" d="M145.2347,-81.7418C208.2425,-83.4675 306.6979,-86.2445 392,-89 413.1288,-89.6825 436.0492,-90.478 457.1089,-91.231"/>
<polygon fill="#999999" stroke="#999999" points="457.2161,-93.3361 463.2875,-91.4526 457.3667,-89.1388 457.2161,-93.3361"/>
</g>
</g>
</svg>
