<?xml version="1.0" encoding="UTF-8" standalone="no"?>
<!DOCTYPE svg PUBLIC "-//W3C//DTD SVG 1.1//EN"
 "http://www.w3.org/Graphics/SVG/1.1/DTD/svg11.dtd">
<!-- Generated by graphviz version 2.40.1 (0)
 -->
<!-- Title: G Pages: 1 -->
<svg width="1036pt" height="363pt"
 viewBox="0.00 0.00 1036.00 363.37" xmlns="http://www.w3.org/2000/svg" xmlns:xlink="http://www.w3.org/1999/xlink">
<g id="graph0" class="graph" transform="scale(1 1) rotate(0) translate(4 359.3679)">
<title>G</title>
<polygon fill="#ffffff" stroke="transparent" points="-4,4 -4,-359.3679 1032,-359.3679 1032,4 -4,4"/>
<text text-anchor="middle" x="514" y="-6.6" font-family="Times,serif" font-size="8.00" fill="#000000">PhpDependencyAnalysis by Marco Muths v2.0.2</text>
<g id="clust1" class="cluster">
<title>cluster_0</title>
<path fill="#ccccff" stroke="#000033" d="M20,-229.3679C20,-229.3679 784,-229.3679 784,-229.3679 790,-229.3679 796,-235.3679 796,-241.3679 796,-241.3679 796,-335.3679 796,-335.3679 796,-341.3679 790,-347.3679 784,-347.3679 784,-347.3679 20,-347.3679 20,-347.3679 14,-347.3679 8,-341.3679 8,-335.3679 8,-335.3679 8,-241.3679 8,-241.3679 8,-235.3679 14,-229.3679 20,-229.3679"/>
<text text-anchor="middle" x="57.5" y="-332.1679" font-family="Times,serif" font-size="14.00" fill="#000033">SolidFigure</text>
</g>
<g id="clust2" class="cluster">
<title>cluster_1</title>
<path fill="#ccccff" stroke="#000033" d="M864,-192.3679C864,-192.3679 1008,-192.3679 1008,-192.3679 1014,-192.3679 1020,-198.3679 1020,-204.3679 1020,-204.3679 1020,-298.3679 1020,-298.3679 1020,-304.3679 1014,-310.3679 1008,-310.3679 1008,-310.3679 864,-310.3679 864,-310.3679 858,-310.3679 852,-304.3679 852,-298.3679 852,-298.3679 852,-204.3679 852,-204.3679 852,-198.3679 858,-192.3679 864,-192.3679"/>
<text text-anchor="middle" x="901.5" y="-295.1679" font-family="Times,serif" font-size="14.00" fill="#000033">ValueObject</text>
</g>
<g id="clust3" class="cluster">
<title>cluster_2</title>
<path fill="#ccccff" stroke="#000033" d="M580,-60.3679C580,-60.3679 739,-60.3679 739,-60.3679 745,-60.3679 751,-66.3679 751,-72.3679 751,-72.3679 751,-209.3679 751,-209.3679 751,-215.3679 745,-221.3679 739,-221.3679 739,-221.3679 580,-221.3679 580,-221.3679 574,-221.3679 568,-215.3679 568,-209.3679 568,-209.3679 568,-72.3679 568,-72.3679 568,-66.3679 574,-60.3679 580,-60.3679"/>
<text text-anchor="middle" x="595" y="-206.1679" font-family="Times,serif" font-size="14.00" fill="#000033">Shape</text>
</g>
<!-- SolidFigure\\ComplexFigure -->
<g id="node1" class="node">
<title>SolidFigure\\ComplexFigure</title>
<path fill="#9999cc" stroke="#000000" d="M447,-316.3679C447,-316.3679 267,-316.3679 267,-316.3679 261,-316.3679 255,-310.3679 255,-304.3679 255,-304.3679 255,-292.3679 255,-292.3679 255,-286.3679 261,-280.3679 267,-280.3679 267,-280.3679 447,-280.3679 447,-280.3679 453,-280.3679 459,-286.3679 459,-292.3679 459,-292.3679 459,-304.3679 459,-304.3679 459,-310.3679 453,-316.3679 447,-316.3679"/>
<text text-anchor="middle" x="357" y="-295.8679" font-family="Times,serif" font-size="10.00" fill="#000033">SolidFigure\ComplexFigure</text>
</g>
<!-- SolidFigure\\SolidFigureInterface -->
<g id="node2" class="node">
<title>SolidFigure\\SolidFigureInterface</title>
<path fill="#9999cc" stroke="#000000" d="M776,-316.3679C776,-316.3679 543,-316.3679 543,-316.3679 537,-316.3679 531,-310.3679 531,-304.3679 531,-304.3679 531,-292.3679 531,-292.3679 531,-286.3679 537,-280.3679 543,-280.3679 543,-280.3679 776,-280.3679 776,-280.3679 782,-280.3679 788,-286.3679 788,-292.3679 788,-292.3679 788,-304.3679 788,-304.3679 788,-310.3679 782,-316.3679 776,-316.3679"/>
<text text-anchor="middle" x="659.5" y="-295.8679" font-family="Times,serif" font-size="10.00" fill="#000033">SolidFigure\SolidFigureInterface</text>
</g>
<!-- SolidFigure\\ComplexFigure&#45;&gt;SolidFigure\\SolidFigureInterface -->
<g id="edge1" class="edge">
<title>SolidFigure\\ComplexFigure&#45;&gt;SolidFigure\\SolidFigureInterface</title>
<path fill="none" stroke="#999999" d="M459.4127,-298.3679C480.4067,-298.3679 502.807,-298.3679 524.7392,-298.3679"/>
<polygon fill="#999999" stroke="#999999" points="524.9113,-300.468 530.9112,-298.3679 524.9112,-296.268 524.9113,-300.468"/>
</g>
<!-- ValueObject\\Volume -->
<g id="node6" class="node">
<title>ValueObject\\Volume</title>
<path fill="#9999cc" stroke="#000000" d="M1000,-279.3679C1000,-279.3679 872,-279.3679 872,-279.3679 866,-279.3679 860,-273.3679 860,-267.3679 860,-267.3679 860,-255.3679 860,-255.3679 860,-249.3679 866,-243.3679 872,-243.3679 872,-243.3679 1000,-243.3679 1000,-243.3679 1006,-243.3679 1012,-249.3679 1012,-255.3679 1012,-255.3679 1012,-267.3679 1012,-267.3679 1012,-273.3679 1006,-279.3679 1000,-279.3679"/>
<text text-anchor="middle" x="936" y="-258.8679" font-family="Times,serif" font-size="10.00" fill="#000033">ValueObject\Volume</text>
</g>
<!-- SolidFigure\\ComplexFigure&#45;&gt;ValueObject\\Volume -->
<g id="edge2" class="edge">
<title>SolidFigure\\ComplexFigure&#45;&gt;ValueObject\\Volume</title>
<path fill="none" stroke="#999999" d="M459.4499,-284.6096C482.9235,-281.8452 507.797,-279.2234 531,-277.3679 642.4308,-268.4571 771.5237,-264.4442 853.448,-262.6818"/>
<polygon fill="#999999" stroke="#999999" points="853.7994,-264.7749 859.7537,-262.5486 853.7106,-260.5759 853.7994,-264.7749"/>
</g>
<!-- SolidFigure\\SolidFigureInterface&#45;&gt;ValueObject\\Volume -->
<g id="edge13" class="edge">
<title>SolidFigure\\SolidFigureInterface&#45;&gt;ValueObject\\Volume</title>
<path fill="none" stroke="#999999" d="M788.0364,-281.1678C810.3706,-278.1791 833.0445,-275.145 853.7112,-272.3794"/>
<polygon fill="#999999" stroke="#999999" points="854.102,-274.446 859.7705,-271.5686 853.5449,-270.2831 854.102,-274.446"/>
</g>
<!-- SolidFigure\\Cuboid -->
<g id="node3" class="node">
<title>SolidFigure\\Cuboid</title>
<path fill="#9999cc" stroke="#000000" d="M163.5,-316.3679C163.5,-316.3679 35.5,-316.3679 35.5,-316.3679 29.5,-316.3679 23.5,-310.3679 23.5,-304.3679 23.5,-304.3679 23.5,-292.3679 23.5,-292.3679 23.5,-286.3679 29.5,-280.3679 35.5,-280.3679 35.5,-280.3679 163.5,-280.3679 163.5,-280.3679 169.5,-280.3679 175.5,-286.3679 175.5,-292.3679 175.5,-292.3679 175.5,-304.3679 175.5,-304.3679 175.5,-310.3679 169.5,-316.3679 163.5,-316.3679"/>
<text text-anchor="middle" x="99.5" y="-295.8679" font-family="Times,serif" font-size="10.00" fill="#000033">SolidFigure\Cuboid</text>
</g>
<!-- SolidFigure\\Polyhedron -->
<g id="node4" class="node">
<title>SolidFigure\\Polyhedron</title>
<path fill="#9999cc" stroke="#000000" d="M436,-273.3679C436,-273.3679 278,-273.3679 278,-273.3679 272,-273.3679 266,-267.3679 266,-261.3679 266,-261.3679 266,-249.3679 266,-249.3679 266,-243.3679 272,-237.3679 278,-237.3679 278,-237.3679 436,-237.3679 436,-237.3679 442,-237.3679 448,-243.3679 448,-249.3679 448,-249.3679 448,-261.3679 448,-261.3679 448,-267.3679 442,-273.3679 436,-273.3679"/>
<text text-anchor="middle" x="357" y="-252.8679" font-family="Times,serif" font-size="10.00" fill="#000033">SolidFigure\Polyhedron</text>
</g>
<!-- SolidFigure\\Cuboid&#45;&gt;SolidFigure\\Polyhedron -->
<g id="edge3" class="edge">
<title>SolidFigure\\Cuboid&#45;&gt;SolidFigure\\Polyhedron</title>
<path fill="none" stroke="#999999" d="M175.7133,-285.641C202.0473,-281.2435 231.9207,-276.255 259.7109,-271.6143"/>
<polygon fill="#999999" stroke="#999999" points="260.4059,-273.6274 265.9781,-270.5677 259.7141,-269.4847 260.4059,-273.6274"/>
</g>
<!-- ValueObject\\Length -->
<g id="node7" class="node">
<title>ValueObject\\Length</title>
<path fill="#9999cc" stroke="#000000" d="M1000,-236.3679C1000,-236.3679 872,-236.3679 872,-236.3679 866,-236.3679 860,-230.3679 860,-224.3679 860,-224.3679 860,-212.3679 860,-212.3679 860,-206.3679 866,-200.3679 872,-200.3679 872,-200.3679 1000,-200.3679 1000,-200.3679 1006,-200.3679 1012,-206.3679 1012,-212.3679 1012,-212.3679 1012,-224.3679 1012,-224.3679 1012,-230.3679 1006,-236.3679 1000,-236.3679"/>
<text text-anchor="middle" x="936" y="-215.8679" font-family="Times,serif" font-size="10.00" fill="#000033">ValueObject\Length</text>
</g>
<!-- SolidFigure\\Cuboid&#45;&gt;ValueObject\\Length -->
<g id="edge4" class="edge">
<title>SolidFigure\\Cuboid&#45;&gt;ValueObject\\Length</title>
<path fill="none" stroke="#999999" d="M175.7378,-280.9827C178.2549,-279.5634 180.6857,-278.0283 183,-276.3679 230.1744,-242.5236 209.8553,-203.8757 255,-167.3679 357.4235,-84.5396 401.5604,-83.7914 531,-59.3679 588.8678,-48.4491 742.3361,-35.1175 796,-59.3679 857.8791,-87.3308 903.3206,-157.6578 923.8499,-194.7006"/>
<polygon fill="#999999" stroke="#999999" points="922.2134,-196.086 926.9295,-200.3484 925.9008,-194.0753 922.2134,-196.086"/>
</g>
<!-- Shape\\Rectangle -->
<g id="node8" class="node">
<title>Shape\\Rectangle</title>
<path fill="#9999cc" stroke="#000000" d="M712,-147.3679C712,-147.3679 607,-147.3679 607,-147.3679 601,-147.3679 595,-141.3679 595,-135.3679 595,-135.3679 595,-123.3679 595,-123.3679 595,-117.3679 601,-111.3679 607,-111.3679 607,-111.3679 712,-111.3679 712,-111.3679 718,-111.3679 724,-117.3679 724,-123.3679 724,-123.3679 724,-135.3679 724,-135.3679 724,-141.3679 718,-147.3679 712,-147.3679"/>
<text text-anchor="middle" x="659.5" y="-126.8679" font-family="Times,serif" font-size="10.00" fill="#000033">Shape\Rectangle</text>
</g>
<!-- SolidFigure\\Cuboid&#45;&gt;Shape\\Rectangle -->
<g id="edge5" class="edge">
<title>SolidFigure\\Cuboid&#45;&gt;Shape\\Rectangle</title>
<path fill="none" stroke="#999999" d="M172.7465,-280.3053C176.2417,-279.0577 179.6762,-277.7453 183,-276.3679 217.2244,-262.1858 221.0253,-249.1383 255,-234.3679 372.4721,-183.2972 406.3045,-180.6753 531,-151.3679 549.5088,-147.0178 569.707,-143.1537 588.4929,-139.925"/>
<polygon fill="#999999" stroke="#999999" points="589.2407,-141.9283 594.8052,-138.8547 588.5385,-137.7874 589.2407,-141.9283"/>
</g>
<!-- SolidFigure\\Polyhedron&#45;&gt;SolidFigure\\SolidFigureInterface -->
<g id="edge9" class="edge">
<title>SolidFigure\\Polyhedron&#45;&gt;SolidFigure\\SolidFigureInterface</title>
<path fill="none" stroke="#999999" d="M448.1702,-268.3277C472.915,-271.8451 500.2217,-275.7267 526.7569,-279.4987"/>
<polygon fill="#999999" stroke="#999999" points="526.527,-281.587 532.7628,-280.3524 527.1181,-277.4288 526.527,-281.587"/>
</g>
<!-- SolidFigure\\Polyhedron&#45;&gt;ValueObject\\Volume -->
<g id="edge12" class="edge">
<title>SolidFigure\\Polyhedron&#45;&gt;ValueObject\\Volume</title>
<path fill="none" stroke="#999999" d="M448.1057,-256.312C559.4212,-257.4656 746.1394,-259.4005 853.4267,-260.5122"/>
<polygon fill="#999999" stroke="#999999" points="853.721,-262.6153 859.7425,-260.5777 853.7646,-258.4155 853.721,-262.6153"/>
</g>
<!-- SolidFigure\\Polyhedron&#45;&gt;ValueObject\\Length -->
<g id="edge11" class="edge">
<title>SolidFigure\\Polyhedron&#45;&gt;ValueObject\\Length</title>
<path fill="none" stroke="#999999" d="M448.1057,-249.546C559.5321,-242.4255 746.5114,-230.4769 853.747,-223.6242"/>
<polygon fill="#999999" stroke="#999999" points="853.8887,-225.7195 859.7425,-223.241 853.6208,-221.528 853.8887,-225.7195"/>
</g>
<!-- Shape\\ShapeInterface -->
<g id="node10" class="node">
<title>Shape\\ShapeInterface</title>
<path fill="#9999cc" stroke="#000000" d="M731,-190.3679C731,-190.3679 588,-190.3679 588,-190.3679 582,-190.3679 576,-184.3679 576,-178.3679 576,-178.3679 576,-166.3679 576,-166.3679 576,-160.3679 582,-154.3679 588,-154.3679 588,-154.3679 731,-154.3679 731,-154.3679 737,-154.3679 743,-160.3679 743,-166.3679 743,-166.3679 743,-178.3679 743,-178.3679 743,-184.3679 737,-190.3679 731,-190.3679"/>
<text text-anchor="middle" x="659.5" y="-169.8679" font-family="Times,serif" font-size="10.00" fill="#000033">Shape\ShapeInterface</text>
</g>
<!-- SolidFigure\\Polyhedron&#45;&gt;Shape\\ShapeInterface -->
<g id="edge10" class="edge">
<title>SolidFigure\\Polyhedron&#45;&gt;Shape\\ShapeInterface</title>
<path fill="none" stroke="#999999" d="M422.638,-237.3582C471.3119,-224.003 537.6234,-205.8085 587.7047,-192.0671"/>
<polygon fill="#999999" stroke="#999999" points="588.499,-194.0269 593.7295,-190.4141 587.3876,-189.9766 588.499,-194.0269"/>
</g>
<!-- SolidFigure\\Cylinder -->
<g id="node5" class="node">
<title>SolidFigure\\Cylinder</title>
<path fill="#9999cc" stroke="#000000" d="M171,-273.3679C171,-273.3679 28,-273.3679 28,-273.3679 22,-273.3679 16,-267.3679 16,-261.3679 16,-261.3679 16,-249.3679 16,-249.3679 16,-243.3679 22,-237.3679 28,-237.3679 28,-237.3679 171,-237.3679 171,-237.3679 177,-237.3679 183,-243.3679 183,-249.3679 183,-249.3679 183,-261.3679 183,-261.3679 183,-267.3679 177,-273.3679 171,-273.3679"/>
<text text-anchor="middle" x="99.5" y="-252.8679" font-family="Times,serif" font-size="10.00" fill="#000033">SolidFigure\Cylinder</text>
</g>
<!-- SolidFigure\\Cylinder&#45;&gt;SolidFigure\\Polyhedron -->
<g id="edge6" class="edge">
<title>SolidFigure\\Cylinder&#45;&gt;SolidFigure\\Polyhedron</title>
<path fill="none" stroke="#999999" d="M183.1029,-255.3679C207.5744,-255.3679 234.5375,-255.3679 259.778,-255.3679"/>
<polygon fill="#999999" stroke="#999999" points="259.8131,-257.468 265.8131,-255.3679 259.8131,-253.268 259.8131,-257.468"/>
</g>
<!-- SolidFigure\\Cylinder&#45;&gt;ValueObject\\Length -->
<g id="edge7" class="edge">
<title>SolidFigure\\Cylinder&#45;&gt;ValueObject\\Length</title>
<path fill="none" stroke="#999999" d="M114.1835,-237.0487C139.5841,-206.6181 194.815,-145.7967 255,-113.3679 366.4074,-53.3395 405.4243,-59.0442 531,-43.3679 647.8706,-28.7783 689.8465,7.6521 796,-43.3679 862.0124,-75.0951 906.6418,-154.7849 925.6422,-194.7467"/>
<polygon fill="#999999" stroke="#999999" points="923.8155,-195.7981 928.2591,-200.344 927.6202,-194.0193 923.8155,-195.7981"/>
</g>
<!-- Shape\\Circle -->
<g id="node9" class="node">
<title>Shape\\Circle</title>
<path fill="#9999cc" stroke="#000000" d="M701,-104.3679C701,-104.3679 618,-104.3679 618,-104.3679 612,-104.3679 606,-98.3679 606,-92.3679 606,-92.3679 606,-80.3679 606,-80.3679 606,-74.3679 612,-68.3679 618,-68.3679 618,-68.3679 701,-68.3679 701,-68.3679 707,-68.3679 713,-74.3679 713,-80.3679 713,-80.3679 713,-92.3679 713,-92.3679 713,-98.3679 707,-104.3679 701,-104.3679"/>
<text text-anchor="middle" x="659.5" y="-83.8679" font-family="Times,serif" font-size="10.00" fill="#000033">Shape\Circle</text>
</g>
<!-- SolidFigure\\Cylinder&#45;&gt;Shape\\Circle -->
<g id="edge8" class="edge">
<title>SolidFigure\\Cylinder&#45;&gt;Shape\\Circle</title>
<path fill="none" stroke="#999999" d="M125.5237,-237.3417C155.4597,-217.4086 206.7139,-185.6969 255,-167.3679 372.6276,-122.7175 519.2978,-101.2043 599.76,-92.0997"/>
<polygon fill="#999999" stroke="#999999" points="600.182,-94.1657 605.9121,-91.4132 599.7162,-89.9916 600.182,-94.1657"/>
</g>
</g>
</svg>
