<?xml version="1.0" encoding="UTF-8" standalone="no"?>
<!DOCTYPE svg PUBLIC "-//W3C//DTD SVG 1.1//EN"
 "http://www.w3.org/Graphics/SVG/1.1/DTD/svg11.dtd">
<!-- Generated by graphviz version 2.40.1 (0)
 -->
<!-- Title: G Pages: 1 -->
<svg width="810pt" height="113pt"
 viewBox="0.00 0.00 810.00 112.88" xmlns="http://www.w3.org/2000/svg" xmlns:xlink="http://www.w3.org/1999/xlink">
<g id="graph0" class="graph" transform="scale(1 1) rotate(0) translate(4 108.878)">
<title>G</title>
<polygon fill="#ffffff" stroke="transparent" points="-4,4 -4,-108.878 806,-108.878 806,4 -4,4"/>
<text text-anchor="middle" x="401" y="-6.6" font-family="Times,serif" font-size="8.00" fill="#000000">PhpDependencyAnalysis by Marco Muths v2.0.2</text>
<!-- ValueObject\\Area -->
<g id="node1" class="node">
<title>ValueObject\\Area</title>
<path fill="#9999cc" stroke="#000000" d="M125,-96C125,-96 12,-96 12,-96 6,-96 0,-90 0,-84 0,-84 0,-72 0,-72 0,-66 6,-60 12,-60 12,-60 125,-60 125,-60 131,-60 137,-66 137,-72 137,-72 137,-84 137,-84 137,-90 131,-96 125,-96"/>
<text text-anchor="middle" x="68.5" y="-75.5" font-family="Times,serif" font-size="10.00" fill="#000033">ValueObject\Area</text>
</g>
<!-- ValueObject\\Unit\\SquareMillimeter -->
<g id="node2" class="node">
<title>ValueObject\\Unit\\SquareMillimeter</title>
<path fill="#9999cc" stroke="#000000" d="M461,-96C461,-96 221,-96 221,-96 215,-96 209,-90 209,-84 209,-84 209,-72 209,-72 209,-66 215,-60 221,-60 221,-60 461,-60 461,-60 467,-60 473,-66 473,-72 473,-72 473,-84 473,-84 473,-90 467,-96 461,-96"/>
<text text-anchor="middle" x="341" y="-75.5" font-family="Times,serif" font-size="10.00" fill="#000033">ValueObject\Unit\SquareMillimeter</text>
</g>
<!-- ValueObject\\Area&#45;&gt;ValueObject\\Unit\\SquareMillimeter -->
<g id="edge1" class="edge">
<title>ValueObject\\Area&#45;&gt;ValueObject\\Unit\\SquareMillimeter</title>
<path fill="none" stroke="#999999" d="M137.2633,-78C157.3089,-78 179.962,-78 202.6914,-78"/>
<polygon fill="#999999" stroke="#999999" points="202.7849,-80.1001 208.7848,-78 202.7848,-75.9001 202.7849,-80.1001"/>
</g>
<!-- ValueObject\\Length -->
<g id="node3" class="node">
<title>ValueObject\\Length</title>
<path fill="#9999cc" stroke="#000000" d="M737.5,-96C737.5,-96 609.5,-96 609.5,-96 603.5,-96 597.5,-90 597.5,-84 597.5,-84 597.5,-72 597.5,-72 597.5,-66 603.5,-60 609.5,-60 609.5,-60 737.5,-60 737.5,-60 743.5,-60 749.5,-66 749.5,-72 749.5,-72 749.5,-84 749.5,-84 749.5,-90 743.5,-96 737.5,-96"/>
<text text-anchor="middle" x="673.5" y="-75.5" font-family="Times,serif" font-size="10.00" fill="#000033">ValueObject\Length</text>
</g>
<!-- ValueObject\\Area&#45;&gt;ValueObject\\Length -->
<g id="edge2" class="edge">
<title>ValueObject\\Area&#45;&gt;ValueObject\\Length</title>
<path fill="none" stroke="#999999" d="M137.2323,-90.3546C159.9948,-93.8886 185.5113,-97.2543 209,-99 326.0106,-107.6963 355.8264,-105.1195 473,-99 511.9876,-96.9638 555.0662,-92.715 591.2683,-88.5684"/>
<polygon fill="#999999" stroke="#999999" points="591.7611,-90.6255 597.4802,-87.8502 591.2787,-86.4533 591.7611,-90.6255"/>
</g>
<!-- ValueObject\\Volume -->
<g id="node4" class="node">
<title>ValueObject\\Volume</title>
<path fill="#9999cc" stroke="#000000" d="M405,-53C405,-53 277,-53 277,-53 271,-53 265,-47 265,-41 265,-41 265,-29 265,-29 265,-23 271,-17 277,-17 277,-17 405,-17 405,-17 411,-17 417,-23 417,-29 417,-29 417,-41 417,-41 417,-47 411,-53 405,-53"/>
<text text-anchor="middle" x="341" y="-32.5" font-family="Times,serif" font-size="10.00" fill="#000033">ValueObject\Volume</text>
</g>
<!-- ValueObject\\Area&#45;&gt;ValueObject\\Volume -->
<g id="edge3" class="edge">
<title>ValueObject\\Area&#45;&gt;ValueObject\\Volume</title>
<path fill="none" stroke="#999999" d="M137.2633,-67.1493C174.0799,-61.3397 219.6918,-54.1422 258.4186,-48.0312"/>
<polygon fill="#999999" stroke="#999999" points="258.9732,-50.0697 264.5725,-47.0601 258.3185,-45.9211 258.9732,-50.0697"/>
</g>
<!-- ValueObject\\Unit\\SquareMillimeter&#45;&gt;ValueObject\\Length -->
<g id="edge5" class="edge">
<title>ValueObject\\Unit\\SquareMillimeter&#45;&gt;ValueObject\\Length</title>
<path fill="none" stroke="#ff0099" stroke-width="2" d="M473.3682,-75.7921C512.2652,-75.6943 553.7464,-75.767 588.7987,-76.0103"/>
<polygon fill="#ff0099" stroke="#ff0099" stroke-width="2" points="589.0798,-78.8124 597.1004,-76.0721 589.1215,-73.2125 589.0798,-78.8124"/>
</g>
<!-- ValueObject\\Unit\\CubicMillimeter -->
<g id="node5" class="node">
<title>ValueObject\\Unit\\CubicMillimeter</title>
<path fill="#9999cc" stroke="#000000" d="M790,-53C790,-53 557,-53 557,-53 551,-53 545,-47 545,-41 545,-41 545,-29 545,-29 545,-23 551,-17 557,-17 557,-17 790,-17 790,-17 796,-17 802,-23 802,-29 802,-29 802,-41 802,-41 802,-47 796,-53 790,-53"/>
<text text-anchor="middle" x="673.5" y="-32.5" font-family="Times,serif" font-size="10.00" fill="#000033">ValueObject\Unit\CubicMillimeter</text>
</g>
<!-- ValueObject\\Unit\\SquareMillimeter&#45;&gt;ValueObject\\Unit\\CubicMillimeter -->
<g id="edge6" class="edge">
<title>ValueObject\\Unit\\SquareMillimeter&#45;&gt;ValueObject\\Unit\\CubicMillimeter</title>
<path fill="none" stroke="#999999" d="M473.3682,-60.8817C494.888,-58.0987 517.1989,-55.2134 538.7744,-52.4232"/>
<polygon fill="#999999" stroke="#999999" points="539.1579,-54.4911 544.839,-51.6389 538.6192,-50.3258 539.1579,-54.4911"/>
</g>
<!-- ValueObject\\Length&#45;&gt;ValueObject\\Unit\\SquareMillimeter -->
<g id="edge4" class="edge">
<title>ValueObject\\Length&#45;&gt;ValueObject\\Unit\\SquareMillimeter</title>
<path fill="none" stroke="#ff0099" stroke-width="2" d="M597.1004,-80.5705C562.8502,-80.9344 521.3274,-81.0671 481.775,-80.9685"/>
<polygon fill="#ff0099" stroke="#ff0099" stroke-width="2" points="481.3764,-78.1674 473.3682,-80.9439 481.3599,-83.7674 481.3764,-78.1674"/>
</g>
<!-- ValueObject\\Volume&#45;&gt;ValueObject\\Unit\\CubicMillimeter -->
<g id="edge7" class="edge">
<title>ValueObject\\Volume&#45;&gt;ValueObject\\Unit\\CubicMillimeter</title>
<path fill="none" stroke="#999999" d="M417.2822,-35C453.2824,-35 497.3368,-35 538.6963,-35"/>
<polygon fill="#999999" stroke="#999999" points="538.7777,-37.1001 544.7777,-35 538.7776,-32.9001 538.7777,-37.1001"/>
</g>
</g>
</svg>
